<?xml version="1.0" encoding="UTF-8" standalone="no"?>
<!-- Created with Inkscape (http://www.inkscape.org/) -->

<svg
   width="4.2614799mm"
   height="8.2589111mm"
   viewBox="0 0 4.2614799 8.2589111"
   version="1.1"
   id="svg1066"
   inkscape:version="1.2.1 (9c6d41e410, 2022-07-14)"
   sodipodi:docname="icon-facebook.svg"
   xmlns:inkscape="http://www.inkscape.org/namespaces/inkscape"
   xmlns:sodipodi="http://sodipodi.sourceforge.net/DTD/sodipodi-0.dtd"
   xmlns="http://www.w3.org/2000/svg"
   xmlns:svg="http://www.w3.org/2000/svg">
  <sodipodi:namedview
     id="namedview1068"
     pagecolor="#ffffff"
     bordercolor="#666666"
     borderopacity="1.0"
     inkscape:showpageshadow="2"
     inkscape:pageopacity="0.0"
     inkscape:pagecheckerboard="0"
     inkscape:deskcolor="#d1d1d1"
     inkscape:document-units="mm"
     showgrid="false"
     inkscape:zoom="9.5144352"
     inkscape:cx="48.189934"
     inkscape:cy="2.9428967"
     inkscape:window-width="1920"
     inkscape:window-height="1009"
     inkscape:window-x="1432"
     inkscape:window-y="-8"
     inkscape:window-maximized="1"
     inkscape:current-layer="layer1" />
  <defs
     id="defs1063" />
  <g
     inkscape:label="Capa 1"
     inkscape:groupmode="layer"
     id="layer1"
     transform="translate(-192.93282,-199.74343)">
    <path
       style="fill:#ffffff;stroke-width:0.0322841"
       d="m 194.19191,206.11356 v -1.88861 h -0.62955 -0.62954 v -0.7264 -0.7264 h 0.62954 0.62955 v -0.67512 c 0,-0.79699 0.0413,-1.06984 0.21507,-1.42336 0.22811,-0.46387 0.66279,-0.78097 1.22156,-0.89116 0.20465,-0.0403 0.37897,-0.0469 0.8394,-0.0313 0.31962,0.0113 0.61381,0.0283 0.65376,0.039 0.0722,0.0194 0.0726,0.0231 0.0726,0.65653 v 0.6371 l -0.51741,0.018 c -0.45656,0.0159 -0.53529,0.0268 -0.66937,0.0936 -0.25981,0.12935 -0.28041,0.19546 -0.29265,0.93924 l -0.0101,0.63761 h 0.72801 0.72801 l -0.0152,0.0888 c -0.009,0.0489 -0.0443,0.32121 -0.08,0.60532 -0.0356,0.28411 -0.0732,0.57104 -0.0836,0.63761 l -0.0189,0.12108 h -0.62671 -0.62669 v 1.88863 1.88861 h -0.75869 -0.75868 z"
       id="path14661" />
  </g>
</svg>
