<?xml version="1.0" encoding="UTF-8" standalone="no"?>
<!-- Created with Inkscape (http://www.inkscape.org/) -->

<svg
   width="1.9344476mm"
   height="1.9451292mm"
   viewBox="0 0 1.9344476 1.9451291"
   version="1.1"
   id="svg848"
   inkscape:version="1.2.1 (9c6d41e410, 2022-07-14)"
   sodipodi:docname="icon-whatsapp.svg"
   xmlns:inkscape="http://www.inkscape.org/namespaces/inkscape"
   xmlns:sodipodi="http://sodipodi.sourceforge.net/DTD/sodipodi-0.dtd"
   xmlns="http://www.w3.org/2000/svg"
   xmlns:svg="http://www.w3.org/2000/svg">
  <sodipodi:namedview
     id="namedview850"
     pagecolor="#ffffff"
     bordercolor="#666666"
     borderopacity="1.0"
     inkscape:showpageshadow="2"
     inkscape:pageopacity="0.0"
     inkscape:pagecheckerboard="0"
     inkscape:deskcolor="#d1d1d1"
     inkscape:document-units="mm"
     showgrid="false"
     inkscape:zoom="9.5144352"
     inkscape:cx="12.77007"
     inkscape:cy="12.297104"
     inkscape:window-width="1440"
     inkscape:window-height="877"
     inkscape:window-x="-8"
     inkscape:window-y="-8"
     inkscape:window-maximized="1"
     inkscape:current-layer="layer1" />
  <defs
     id="defs845" />
  <g
     inkscape:label="Capa 1"
     inkscape:groupmode="layer"
     id="layer1"
     transform="translate(-40.263585,-177.42333)">
    <path
       style="fill:#ffffff;stroke-width:0.00811148"
       d="m 40.268852,179.34776 c 0.0031,-0.0114 0.03337,-0.12332 0.06771,-0.24864 l 0.06249,-0.22785 -0.02747,-0.0551 c -0.130504,-0.26172 -0.132875,-0.57581 -0.0064,-0.84011 0.052,-0.10855 0.102803,-0.18094 0.186253,-0.26524 0.299837,-0.30288 0.757483,-0.3743 1.132318,-0.17669 0.417172,0.21993 0.61418,0.71217 0.464409,1.16036 -0.15397,0.46072 -0.640551,0.73818 -1.114089,0.63527 -0.07266,-0.0158 -0.177464,-0.0516 -0.230053,-0.0787 l -0.0313,-0.0161 -0.114683,0.03 c -0.06308,0.0165 -0.17764,0.0466 -0.25457,0.0668 l -0.139882,0.0367 z m 1.081637,-0.16794 c 0.342112,-0.0522 0.603007,-0.30343 0.674105,-0.64924 0.01456,-0.0709 0.01226,-0.23068 -0.0043,-0.30824 -0.04047,-0.18752 -0.15004,-0.3589 -0.304584,-0.47646 -0.07136,-0.0543 -0.19928,-0.11537 -0.287964,-0.13753 -0.101603,-0.0254 -0.294235,-0.0255 -0.386482,-3.2e-4 -0.289922,0.0794 -0.505212,0.29464 -0.584709,0.58469 -0.01383,0.0505 -0.01713,0.0862 -0.01747,0.19181 -3.83e-4,0.16054 0.01379,0.22242 0.08508,0.36705 l 0.04896,0.0994 -0.03804,0.13829 c -0.02092,0.0761 -0.03586,0.14045 -0.03326,0.14309 0.0023,0.003 0.06913,-0.0123 0.147771,-0.0331 l 0.142963,-0.0379 0.08233,0.0406 c 0.159764,0.0788 0.309408,0.10329 0.47573,0.0779 z m 0.06225,-0.33728 c -0.06234,-0.0156 -0.199915,-0.0741 -0.250064,-0.10638 -0.127174,-0.0817 -0.241129,-0.1965 -0.33189,-0.33418 -0.0888,-0.13473 -0.10735,-0.24732 -0.05745,-0.3487 0.01414,-0.0287 0.04029,-0.0654 0.05813,-0.0815 0.03004,-0.0272 0.03609,-0.0293 0.08409,-0.0293 0.03314,0 0.05491,0.004 0.06067,0.0108 0.01165,0.014 0.09848,0.22318 0.09848,0.2372 0,0.006 -0.01828,0.0348 -0.04053,0.0643 -0.02234,0.0295 -0.04059,0.0582 -0.04059,0.0637 0,0.0314 0.09619,0.14913 0.170651,0.20889 0.0597,0.0479 0.178161,0.1094 0.196897,0.10222 0.007,-0.003 0.03563,-0.0327 0.06346,-0.0667 0.04144,-0.0505 0.05393,-0.0609 0.0684,-0.0573 0.0098,0.002 0.06471,0.0273 0.122143,0.0553 0.09982,0.0486 0.104542,0.052 0.106983,0.0773 0.0011,0.0146 -0.0031,0.0461 -0.01008,0.07 -0.01463,0.0504 -0.05703,0.094 -0.117216,0.12068 -0.04265,0.0189 -0.133809,0.0257 -0.182084,0.0136 z"
       id="path1073" />
  </g>
</svg>
