<?xml version="1.0" encoding="UTF-8" standalone="no"?>
<!-- Created with Inkscape (http://www.inkscape.org/) -->

<svg
   width="21.201635mm"
   height="21.046572mm"
   viewBox="0 0 21.201635 21.046572"
   version="1.1"
   id="svg9984"
   inkscape:version="1.2.1 (9c6d41e410, 2022-07-14)"
   sodipodi:docname="icon-relax.svg"
   xmlns:inkscape="http://www.inkscape.org/namespaces/inkscape"
   xmlns:sodipodi="http://sodipodi.sourceforge.net/DTD/sodipodi-0.dtd"
   xmlns="http://www.w3.org/2000/svg"
   xmlns:svg="http://www.w3.org/2000/svg">
  <sodipodi:namedview
     id="namedview9986"
     pagecolor="#ffffff"
     bordercolor="#666666"
     borderopacity="1.0"
     inkscape:showpageshadow="2"
     inkscape:pageopacity="0.0"
     inkscape:pagecheckerboard="0"
     inkscape:deskcolor="#d1d1d1"
     inkscape:document-units="mm"
     showgrid="false"
     inkscape:zoom="1.6819304"
     inkscape:cx="187.58208"
     inkscape:cy="93.939678"
     inkscape:window-width="1440"
     inkscape:window-height="877"
     inkscape:window-x="-8"
     inkscape:window-y="-8"
     inkscape:window-maximized="1"
     inkscape:current-layer="layer1" />
  <defs
     id="defs9981" />
  <g
     inkscape:label="Capa 1"
     inkscape:groupmode="layer"
     id="layer1"
     transform="translate(39.439137,34.763671)">
    <path
       style="fill:#7e7e7e;fill-opacity:1;stroke-width:0.082844"
       d="m -36.356667,-13.825154 c -0.05918,-0.05915 -0.09943,-0.34419 -0.09943,-0.704022 v -0.604631 h -1.491521 -1.491519 v -0.331304 -0.331304 h 4.337417 c 4.0273,0 4.3465,-0.01036 4.46434,-0.144945 0.0698,-0.07971 0.21434,-0.512132 0.32119,-0.960916 0.25668,-1.078008 0.29697,-1.047617 -1.38825,-1.047617 -1.18081,0 -1.27156,-0.01111 -1.35431,-0.165653 -0.15392,-0.287477 0.0228,-0.463571 0.57361,-0.57191 0.36506,-0.07179 0.54201,-0.154802 0.66609,-0.312465 0.093,-0.118086 0.16895,-0.246948 0.16895,-0.286359 0,-0.03941 -0.36152,-0.07166 -0.80337,-0.07166 h -0.80336 l -0.88292,0.869673 -0.88292,0.869674 h -2.208236 -2.208231 v -0.331305 -0.331304 h 1.491516 1.491519 v -1.408038 -1.408043 h -1.408658 -1.408656 v -0.331305 -0.331305 h 2.715218 2.715218 l 0.86709,0.869674 0.86708,0.869674 h 0.8094 c 0.61168,0 0.80939,-0.02648 0.80939,-0.108409 0,-0.235015 -0.23905,-0.409484 -0.74112,-0.540918 -0.57217,-0.14978 -0.76835,-0.33184 -0.61678,-0.572359 0.0795,-0.126193 0.25635,-0.14768 1.36681,-0.166093 1.65524,-0.02744 1.63388,-0.0091 1.34525,-1.157812 -0.11247,-0.447657 -0.26376,-0.855099 -0.33879,-0.912398 -0.10488,-0.08009 -1.22943,-0.103533 -4.96716,-0.103533 h -4.831606 v -0.331304 -0.331305 h 1.408656 1.408658 v -0.892803 -0.892805 l -1.244408,-1.321937 c -0.996955,-1.059065 -1.277073,-1.409195 -1.408658,-1.760737 -0.315999,-0.844215 -0.159356,-1.706229 0.432099,-2.377867 0.448647,-0.509467 0.88749,-0.724044 1.599499,-0.782098 l 0.580037,-0.0473 0.04647,-0.621194 c 0.05037,-0.673232 0.1813,-0.994424 0.546883,-1.341532 0.52454,-0.498021 0.26585,-0.480645 7.15426,-0.480645 6.88817,0 6.62572,-0.01762 7.15732,0.480645 0.3708,0.347553 0.54498,0.807649 0.54705,1.445064 l 0.002,0.559074 h 0.52233 c 1.66603,0 2.79058,1.827946 2.05317,3.337438 -0.0935,0.191578 -0.71136,0.923975 -1.37284,1.627551 l -1.20266,1.279226 v 6.055023 c 0,4.599026 -0.0239,6.078921 -0.0994,6.154414 -0.14414,0.14408 -15.069361,0.14408 -15.213499,0 z m 2.916037,-0.896198 c 0.0733,-0.18314 0.13329,-0.350863 0.13329,-0.372718 0,-0.02185 -0.55931,-0.03973 -1.24293,-0.03973 h -1.24293 v 0.372718 0.372717 h 1.10964 1.10964 z m 8.6681,0.225431 c 0,-0.05916 -0.26377,-0.757997 -0.58617,-1.552988 l -0.58616,-1.445441 0.35662,-2.567608 0.35663,-2.567608 1.2446,-1.319177 c 0.68452,-0.725546 2.05644,-2.176272 3.04871,-3.223837 1.63262,-1.723623 1.8163,-1.946599 1.93242,-2.345878 0.11604,-0.398967 0.11593,-0.483859 -9.4e-4,-0.886524 -0.15161,-0.521315 -0.60195,-0.983179 -1.09932,-1.127465 -0.20931,-0.06072 -1.1758,-0.08332 -2.86467,-0.06699 l -2.54879,0.02466 0.29079,0.43157 c 0.30605,0.454197 0.35578,0.671334 0.19136,0.835669 -0.0773,0.0773 0.33473,0.09939 1.85426,0.09939 2.10932,0 2.22278,0.0234 2.10393,0.433761 -0.0298,0.103091 -0.78431,0.830371 -1.67656,1.616185 l -1.62227,1.428749 h -4.37756 -4.37755 l -1.64061,-1.457684 c -2.327417,-2.067915 -2.344386,-2.021011 0.7311,-2.021011 1.22493,0 2.22714,-0.02012 2.22714,-0.04471 0,-0.02459 -0.0754,-0.192315 -0.16741,-0.372718 -0.15911,-0.311748 -0.18684,-0.328095 -0.55931,-0.329824 -0.43864,-0.0021 -0.97424,-0.215557 -1.21267,-0.483439 -0.15153,-0.170256 -0.22446,-0.177277 -1.82297,-0.175531 -1.880742,0.0021 -2.112062,0.05602 -2.594535,0.605287 -0.491207,0.559212 -0.54504,1.326077 -0.135439,1.929397 0.112921,0.166323 1.176308,1.322245 2.363084,2.568713 l 2.15778,2.266306 h 0.76774 0.76773 l 0.0472,-0.290679 c 0.0666,-0.409935 0.35669,-0.779421 0.75349,-0.959546 0.29364,-0.133298 0.55926,-0.154427 1.96113,-0.156001 1.98969,-0.0023 2.31235,0.07101 2.8998,0.658197 0.54272,0.542476 0.6919,1.053439 0.63989,2.191634 -0.0421,0.922097 -0.15665,1.235376 -0.68067,1.862323 -0.16279,0.194751 -0.30072,0.359883 -0.30652,0.366962 -0.007,0.0071 -0.0338,0.739669 -0.0622,1.627979 -0.0499,1.565441 -0.0585,1.626938 -0.27783,1.999801 -0.45197,0.768494 -1.02904,1.086554 -1.99033,1.09701 -0.39881,0.0043 -0.64218,0.04076 -0.64218,0.09611 0,0.04902 -0.1142,0.198597 -0.25378,0.332394 -0.24986,0.239515 -0.27009,0.243685 -1.31142,0.270271 l -1.05765,0.02701 -0.0973,0.268768 c -0.0534,0.147823 -0.0973,0.312713 -0.0973,0.366421 0,0.07363 0.97846,0.09765 3.97739,0.09765 3.20589,0 3.97738,-0.02086 3.97738,-0.107549 z m 3.04579,-5.345369 c 0.0117,-2.976327 -0.009,-5.398989 -0.0477,-5.383695 -0.0379,0.01529 -0.48952,0.467669 -1.0035,1.005275 -0.78657,0.822713 -0.92507,1.006296 -0.87483,1.159564 0.0328,0.10015 0.0779,0.468544 0.0999,0.818641 0.035,0.554306 0.0137,0.693409 -0.16489,1.076739 -0.2139,0.45902 -0.5896,0.89019 -0.97283,1.116471 -0.2119,0.125118 -0.23366,0.197191 -0.38617,1.279554 l -0.16161,1.146968 0.58949,1.471755 c 0.32421,0.809466 0.61469,1.538067 0.64551,1.619116 0.0505,0.13272 0.16529,0.145064 1.15562,0.12424 l 1.09959,-0.02311 z m -6.83021,3.186463 c 0.34489,-0.144039 0.68803,-0.550798 0.79773,-0.945627 0.047,-0.169414 0.0861,-0.885738 0.0868,-1.59183 9.4e-4,-1.194248 0.0155,-1.312694 0.20478,-1.697935 0.11194,-0.227772 0.32599,-0.557225 0.47566,-0.732116 0.27093,-0.316568 0.27224,-0.322474 0.29892,-1.325217 0.025,-0.941075 0.0141,-1.025772 -0.16573,-1.289507 -0.44384,-0.650818 -0.77548,-0.744245 -2.66031,-0.749444 -1.39526,-0.0039 -1.78598,0.07556 -1.95865,0.398067 -0.1744,0.325715 -0.12459,0.34376 0.9489,0.34376 1.13094,0 1.50857,0.09363 1.72594,0.427919 0.069,0.106302 0.22552,0.592917 0.34754,1.081365 0.26688,1.068233 0.23782,1.351628 -0.17576,1.714607 -0.25603,0.224699 -0.34979,0.254805 -0.7936,0.254805 h -0.50328 l 0.0687,0.227772 c 0.10488,0.348085 0.0829,0.895135 -0.0421,1.04557 -0.0795,0.09582 -0.24945,0.134702 -0.58852,0.134702 -0.45361,0 -0.47889,0.01101 -0.52266,0.227771 -0.0253,0.125275 -0.0712,0.292998 -0.10211,0.372718 -0.0494,0.127569 9e-5,0.144946 0.41262,0.144946 0.88012,0 1.26499,0.403903 1.17881,1.237112 -0.0263,0.253451 -0.0724,0.544683 -0.10263,0.64718 -0.0519,0.176245 -0.0318,0.186359 0.37167,0.186359 0.23465,0 0.54836,-0.05084 0.69714,-0.112977 z m -5.91046,-2.496044 c 0.71494,-0.717061 0.91055,-0.869674 1.11476,-0.869674 0.24565,0 0.2433,-0.0044 -0.28614,-0.538369 l -0.53382,-0.538369 h -0.8103 -0.81029 v 1.408043 1.408043 h 0.22935 c 0.18095,0 0.41236,-0.183552 1.09644,-0.869674 z m 10.11641,-2.319131 c 0.16018,-0.342696 0.21281,-0.991998 0.0867,-1.069897 -0.14077,-0.08696 -0.32195,0.24886 -0.37612,0.69718 -0.0303,0.250549 -0.0748,0.585995 -0.0987,0.745436 -0.0422,0.279949 -0.0389,0.284209 0.0948,0.124237 0.0762,-0.09111 0.20816,-0.314739 0.29333,-0.496956 z m -10.87057,-3.250923 c -0.2457,-0.261938 -0.47485,-0.488674 -0.50918,-0.503858 -0.0344,-0.01519 -0.0625,0.199126 -0.0625,0.47625 v 0.503857 h 0.50918 0.50919 z m 3.98579,-3.563798 c 0,-1.343429 0.13649,-1.260822 -2.08317,-1.260822 -1.00384,0 -1.81274,0.031 -1.79755,0.06887 0.0151,0.03788 0.53101,0.520608 1.14627,1.072733 l 1.11864,1.003866 0.80789,0.004 0.80792,0.004 v -0.892658 z m 3.16224,0.267315 c 0.022,-0.434604 0.069,-0.648951 0.15406,-0.702751 0.0674,-0.04258 0.4088,-0.07798 0.75874,-0.07868 0.84393,-0.0017 0.89669,-0.05709 0.89669,-0.941826 0,-0.66455 0.005,-0.683559 0.24305,-0.823756 l 0.24304,-0.143509 -0.39912,-0.579119 c -0.21952,-0.318516 -0.44271,-0.752134 -0.49598,-0.963599 -0.0533,-0.211467 -0.155,-0.499984 -0.22608,-0.641154 -0.14031,-0.278711 -0.59945,-0.795042 -0.70697,-0.795042 -0.0367,0 -0.0666,0.407325 -0.0666,0.905167 0,1.06043 -0.0565,1.165484 -0.62737,1.165484 -0.40541,0 -0.69842,0.208386 -0.69842,0.496718 0,0.09098 0.13462,0.31435 0.29915,0.496385 0.38006,0.420505 0.34367,0.600009 -0.22536,1.11139 -0.3137,0.281915 -0.573,0.426455 -0.9948,0.554516 l -0.5705,0.173211 v 0.695955 0.695955 h 1.19244 1.19245 z m 4.53078,-0.382293 c 0.62249,-0.5542 1.14423,-1.038732 1.15941,-1.076738 0.0152,-0.03801 -0.69785,-0.06911 -1.58455,-0.06911 h -1.61217 l -0.0413,0.429699 c -0.0348,0.361625 -0.0888,0.47316 -0.34078,0.704021 -0.27492,0.251843 -0.3437,0.274323 -0.83929,0.274323 h -0.53982 v 0.372718 0.372717 h 1.33335 1.33336 z m -6.32579,-1.301617 c 0.18228,-0.08368 0.40283,-0.232334 0.49009,-0.330353 0.1568,-0.176163 0.15642,-0.180564 -0.0327,-0.381713 -0.25566,-0.272006 -0.32113,-0.908505 -0.13123,-1.275585 0.16346,-0.315949 0.57859,-0.589095 0.89597,-0.589528 l 0.22788,-3.09e-4 v -0.868095 c 0,-0.866232 -6.3e-4,-0.868213 -0.21587,-0.92225 -0.3422,-0.08584 -1.24501,0.02971 -1.65764,0.212146 -0.36672,0.162147 -0.37565,0.174803 -0.30856,0.437751 0.19344,0.758235 -0.0487,1.59253 -0.58673,2.021653 l -0.28333,0.225977 0.40818,0.81304 c 0.45818,0.912633 0.53971,0.95752 1.19385,0.657266 z m -1.96723,-2.080083 c 0.37386,-0.227843 0.59931,-0.629143 0.59969,-1.06741 6.2e-4,-0.894697 -0.87152,-1.460642 -1.69207,-1.097834 -1.17977,0.521639 -0.7988,2.329828 0.49087,2.329828 0.18488,0 0.45087,-0.07278 0.60151,-0.164584 z m -2.5023,-1.015067 c 0.004,-0.452998 0.0783,-0.715319 0.34966,-1.24239 0.0557,-0.107991 -0.80399,-0.06713 -1.0824,0.05145 -0.45158,0.192328 -0.66259,0.492001 -0.70481,1.00096 -0.0577,0.695589 -0.045,0.707647 0.74631,0.707647 h 0.6862 l 0.005,-0.517662 z m 12.58943,-0.03613 c -6.4e-4,-0.591418 -0.1666,-0.888756 -0.62677,-1.123304 -0.24875,-0.126785 -0.55046,-0.144833 -2.42337,-0.144946 l -2.13926,-1.28e-4 0.28525,0.352011 c 0.29099,0.359108 0.55447,0.817037 0.55447,0.963701 0,0.04486 0.0366,0.177794 0.0814,0.295429 l 0.0814,0.213884 2.09377,-0.02213 2.09378,-0.02213 -6.2e-4,-0.512384 z"
       id="path16966" />
  </g>
</svg>
