<?xml version="1.0" encoding="UTF-8" standalone="no"?>
<!-- Created with Inkscape (http://www.inkscape.org/) -->

<svg
   width="30.304817mm"
   height="22.367422mm"
   viewBox="0 0 30.304817 22.367422"
   version="1.1"
   id="svg9984"
   inkscape:version="1.2.1 (9c6d41e410, 2022-07-14)"
   sodipodi:docname="icon-relaxing.svg"
   xmlns:inkscape="http://www.inkscape.org/namespaces/inkscape"
   xmlns:sodipodi="http://sodipodi.sourceforge.net/DTD/sodipodi-0.dtd"
   xmlns="http://www.w3.org/2000/svg"
   xmlns:svg="http://www.w3.org/2000/svg">
  <sodipodi:namedview
     id="namedview9986"
     pagecolor="#ffffff"
     bordercolor="#666666"
     borderopacity="1.0"
     inkscape:showpageshadow="2"
     inkscape:pageopacity="0.0"
     inkscape:pagecheckerboard="0"
     inkscape:deskcolor="#d1d1d1"
     inkscape:document-units="mm"
     showgrid="false"
     inkscape:zoom="1.6819304"
     inkscape:cx="79.967637"
     inkscape:cy="90.966903"
     inkscape:window-width="1920"
     inkscape:window-height="1009"
     inkscape:window-x="1432"
     inkscape:window-y="-8"
     inkscape:window-maximized="1"
     inkscape:current-layer="layer1" />
  <defs
     id="defs9981" />
  <g
     inkscape:label="Capa 1"
     inkscape:groupmode="layer"
     id="layer1"
     transform="translate(-4.9831853,-3.7606745)">
    <path
       style="fill:#999999;fill-opacity:1;stroke-width:0.11843"
       d="M 8.6959238,26.091642 C 7.9356068,25.996462 7.4358437,25.737195 7.2159417,25.32385 6.8604327,24.655609 7.1025977,22.960224 7.8827978,20.655209 7.9206178,20.54345 7.8056178,20.395945 7.5739348,20.259088 6.9317647,19.879748 5.6706567,18.61653 5.3148567,17.996224 c -0.382724,-0.667236 -0.422583,-0.991923 -0.179473,-1.461913 0.201008,-0.388583 1.3255,-1.464597 2.173566,-2.079852 0.3419691,-0.248089 0.6217611,-0.489354 0.6217611,-0.536144 0,-0.0468 -0.18984,-0.641803 -0.421867,-1.322251 -0.3939721,-1.155366 -0.4184301,-1.311886 -0.3698861,-2.367001 0.06128,-1.3318564 0.303455,-1.9098764 1.2538021,-2.9925024 0.332097,-0.378325 0.603819,-0.730392 0.603819,-0.782371 0,-0.05198 0.186348,-0.338567 0.414115,-0.636861 0.509033,-0.666659 1.5689752,-1.220518 2.6654512,-1.392793 0.42317,-0.06648 1.076051,-0.225522 1.450844,-0.353412 0.903284,-0.308229 2.329284,-0.312205 2.998257,-0.0084 0.919807,0.417764 1.637687,1.674208 1.204235,2.107658 -0.273113,0.273116 -0.622897,0.08984 -0.82876,-0.434224 -0.264235,-0.672674 -0.778862,-0.949166 -1.767689,-0.949719 -0.435433,-2.48e-4 -0.94172,0.05713 -1.125087,0.127507 l -0.333389,0.127949 0.35529,0.285934 c 0.195408,0.157265 0.887389,0.451527 1.537738,0.653917 1.853942,0.576952 2.754593,1.121388 3.023016,1.827385 0.06447,0.169577 0.117224,0.666047 0.117224,1.103268 0,0.543241 0.06114,0.882246 0.193107,1.070651 0.279658,0.3992644 0.242725,1.4050034 -0.07442,2.0266574 -0.32978,0.646429 -0.222677,0.749253 0.639606,0.614034 0.565598,-0.0887 0.718595,-0.07343 0.923045,0.09213 0.203003,0.164385 0.222202,0.241166 0.111857,0.44735 -0.130557,0.243949 -0.286782,0.298723 -1.276952,0.44769 -0.40317,0.06066 -0.619104,0.0088 -1.213907,-0.291439 -0.844807,-0.42646 -0.911161,-0.649741 -0.374669,-1.260771 0.191858,-0.218512 0.403366,-0.594816 0.470024,-0.836228 0.317256,-1.149008 -1.227607,-2.5538054 -0.745162,-2.3522264 0.461656,0.192892 0.527463,0.142006 0.43723,-0.338079 -0.136865,-0.728207 -4.023605,-2.17708 -4.566057,-2.672851 -0.627051,-0.573094 -0.637569,-0.577326 -1.181701,-0.475673 -1.115101,0.208324 -2.5526962,2.054231 -2.6954512,2.183338 -0.453706,0.410333 -1.037966,1.288642 -1.18312,1.778568 -0.182684,0.616577 -0.02161,1.0467144 0.494549,1.3208634 0.426047,0.226276 1.103588,0.248805 4.7126762,0.156705 2.597407,-0.06628 3.908184,0.234828 3.908184,0.897786 0,0.42672 -0.2738,0.475531 -1.2297,0.219227 -0.713435,-0.191292 -1.133714,-0.217978 -2.737697,-0.17383 -3.121288,0.08591 -4.2420202,0.06508 -4.6675752,-0.08672 -0.222257,-0.07928 -0.421783,-0.126474 -0.443388,-0.104869 -0.02162,0.0216 0.22451,0.807924 0.546928,1.747373 l 0.586212,1.708091 -0.172294,0.888222 c -0.09476,0.488524 -0.172357,0.897415 -0.172433,0.908646 -7.6e-5,0.01124 0.186224,0.08193 0.414002,0.157106 0.317664,0.104835 0.507015,0.295135 0.8127832,0.816845 0.219246,0.374091 0.463363,0.876297 0.542474,1.116019 0.07912,0.239717 0.219314,0.43585 0.311553,0.43585 0.227229,0 1.868664,-1.459491 2.630607,-2.339007 0.644544,-0.74401 0.703578,-0.932421 0.486904,-1.553979 -0.163516,-0.469063 0.02954,-0.754082 0.475602,-0.702157 0.259998,0.03026 0.330693,0.129119 0.472142,0.660195 0.232959,0.874652 0.06589,1.344188 -0.823699,2.31502 -0.595507,0.649892 -0.757815,0.921534 -0.947994,1.586559 -0.126212,0.441324 -0.229472,0.846043 -0.229472,0.899381 0,0.159357 2.271373,-1.078886 2.783103,-1.517216 l 0.473717,-0.405774 -0.617588,-0.0045 c -0.491214,-0.0035 -0.643232,-0.05235 -0.742901,-0.238593 -0.193488,-0.361529 0.223111,-0.711519 0.857161,-0.720119 1.107426,-0.01499 1.432076,-0.138807 1.695571,-0.646539 0.200908,-0.387137 0.307081,-0.471717 0.59215,-0.471717 1.245937,0 -0.642498,2.699179 -2.774652,3.965868 -1.008628,0.599215 -2.58819,1.300833 -2.933032,1.302815 -0.431608,0.0026 -0.564497,-0.280166 -0.413559,-0.8796 0.192208,-0.763312 0.17035,-0.819989 -0.21137,-0.548179 -0.718466,0.511597 -1.634498,0.188592 -1.9136032,-0.67476 -0.259122,-0.80152 -0.703579,-1.431319 -1.207798,-1.711442 -0.619943,-0.344412 -0.718188,-0.691981 -0.507973,-1.797078 0.08808,-0.463056 0.139745,-0.863162 0.114799,-0.889121 -0.07928,-0.08251 -1.0216681,0.616099 -1.7508411,1.297945 -0.608863,0.569341 -0.69381,0.700427 -0.626835,0.967291 0.09695,0.386269 1.056983,1.445388 1.7794641,1.963119 l 0.546189,0.391407 0.200195,-0.419812 c 0.222151,-0.465859 0.552326,-0.635094 0.814518,-0.417495 0.239578,0.198834 0.215872,0.458505 -0.109045,1.194454 -0.48888,1.107312 -1.149564,3.306343 -1.2191,4.057656 -0.05961,0.644036 -0.03809,0.749913 0.195131,0.9599 0.216938,0.195332 0.418372,0.233814 1.168451,0.223223 1.9225972,-0.02712 4.7062092,-0.923027 9.2432082,-2.974854 1.906106,-0.862018 1.724082,-0.841834 4.098249,-0.454429 2.012953,0.328464 6.139671,0.47143 9.35959,0.324256 3.056694,-0.139722 3.253185,-0.119404 3.253185,0.336396 0,0.114324 -0.07116,0.266914 -0.158123,0.33909 -0.245911,0.204088 -5.05891,0.405235 -7.599033,0.317584 -2.530371,-0.08732 -3.918121,-0.206993 -5.770908,-0.497683 L 20.489356,22.391622 18.9017,23.117875 c -4.894878,2.239101 -8.254345,3.217949 -10.2057722,2.973667 z M 26.287331,18.298889 c -0.777768,-0.162755 -1.302729,-0.713828 -1.302729,-1.367535 0,-0.443876 0.894328,-1.356772 2.155779,-2.200542 1.153276,-0.771418 1.550303,-0.889865 2.641259,-0.787989 l 0.742341,0.06932 2.035264,-1.889169 c 1.119398,-1.039043 2.131481,-1.889169 2.249078,-1.889169 0.264956,0 0.512498,0.282813 0.459846,0.525376 -0.02167,0.09981 -1.020364,1.089575 -2.219338,2.19949 l -2.17995,2.018028 -1.023721,-0.07728 c -0.84791,-0.064 -1.093863,-0.04159 -1.432156,0.130505 -0.531558,0.270421 -1.867714,1.256079 -2.237432,1.650513 -0.274374,0.292718 -0.278761,0.319387 -0.08446,0.51356 0.167513,0.167397 0.415112,0.203232 1.355275,0.196157 1.393821,-0.0105 2.57,-0.331415 3.415811,-0.932012 1.040645,-0.73894 3.842219,-2.331886 4.034553,-2.294004 0.24835,0.04892 0.446131,0.374553 0.36148,0.595154 -0.03711,0.09667 -0.698423,0.540355 -1.469613,0.985952 -0.771189,0.445594 -1.815255,1.091082 -2.320144,1.434411 -0.508783,0.345976 -1.247867,0.725113 -1.658019,0.850537 -0.812925,0.248589 -2.869625,0.405451 -3.523134,0.268696 z m -6.39521,-1.7883 c -0.337129,-0.337135 -0.297789,-0.90611 0.120536,-1.743255 0.626537,-1.253807 1.821965,-2.365719 3.38955,-3.152739 0.566394,-0.284364 0.785074,-0.55033 3.15664,-3.8391964 1.40145,-1.943515 2.630583,-3.602128 2.731408,-3.685804 0.275668,-0.228783 0.668399,-0.05508 0.668399,0.295638 0,0.194801 -0.897831,1.536666 -2.664247,3.98187 l -2.664249,3.6880534 -0.806681,0.424482 c -1.054038,0.554641 -1.943279,1.21382 -2.371319,1.757819 -0.398967,0.507049 -0.892912,1.440144 -0.807544,1.525512 0.138705,0.138705 2.01919,-0.988614 3.022783,-1.81211 0.896121,-0.735308 1.145596,-0.884038 1.382928,-0.824472 0.355012,0.0891 0.388475,0.498516 0.07443,0.91081 -0.851344,1.117716 -0.908829,1.210081 -0.672613,1.080718 0.130009,-0.0712 0.515471,-0.414142 0.856584,-0.762098 0.532758,-0.543441 0.640139,-0.732541 0.761517,-1.341069 l 0.141311,-0.708421 4.153317,-4.2319494 c 2.284327,-2.327571 4.223798,-4.259267 4.309941,-4.292657 0.252491,-0.09788 0.613174,0.161994 0.613174,0.441783 0,0.180859 -1.152351,1.412448 -3.84897,4.113629 -2.116929,2.1205164 -3.848967,3.8928454 -3.848967,3.9385084 0,0.04565 0.700428,0.0979 1.556502,0.116071 1.331176,0.02825 1.5754,0.06304 1.687021,0.240297 0.09524,0.151238 0.09481,0.263269 -0.0013,0.414505 -0.116916,0.183467 -0.341109,0.206054 -1.953486,0.196804 -1.90758,-0.01093 -1.993905,0.01185 -1.997245,0.527375 -0.0022,0.341226 -1.613621,2.042628 -2.196595,2.319268 -0.463924,0.220148 -0.868227,0.110685 -1.195957,-0.323791 l -0.214805,-0.284813 -0.617243,0.394844 c -0.769775,0.492415 -1.716272,0.871244 -2.17679,0.871244 -0.192998,0 -0.457491,-0.106581 -0.587763,-0.236856 z"
       id="path15065"
       sodipodi:nodetypes="csssssssssssssscsssscsssssssssscsssssssscssssssscsssscsssssssssccscssscssssssssscssssscssssssscsccsssscsssscssssssssssssscsssssscssssscssscssssssscscsccsscc" />
  </g>
</svg>
