<?xml version="1.0" encoding="UTF-8" standalone="no"?>
<!-- Created with Inkscape (http://www.inkscape.org/) -->

<svg
   width="7.9705801mm"
   height="7.9756618mm"
   viewBox="0 0 7.9705801 7.9756618"
   version="1.1"
   id="svg915"
   inkscape:version="1.2.1 (9c6d41e410, 2022-07-14)"
   sodipodi:docname="icon-instagram.svg"
   xmlns:inkscape="http://www.inkscape.org/namespaces/inkscape"
   xmlns:sodipodi="http://sodipodi.sourceforge.net/DTD/sodipodi-0.dtd"
   xmlns="http://www.w3.org/2000/svg"
   xmlns:svg="http://www.w3.org/2000/svg">
  <sodipodi:namedview
     id="namedview917"
     pagecolor="#ffffff"
     bordercolor="#666666"
     borderopacity="1.0"
     inkscape:showpageshadow="2"
     inkscape:pageopacity="0.0"
     inkscape:pagecheckerboard="0"
     inkscape:deskcolor="#d1d1d1"
     inkscape:document-units="mm"
     showgrid="false"
     inkscape:zoom="6.7277216"
     inkscape:cx="-28.761594"
     inkscape:cy="13.080208"
     inkscape:window-width="1920"
     inkscape:window-height="1009"
     inkscape:window-x="1432"
     inkscape:window-y="-8"
     inkscape:window-maximized="1"
     inkscape:current-layer="layer1" />
  <defs
     id="defs912" />
  <g
     inkscape:label="Capa 1"
     inkscape:groupmode="layer"
     id="layer1"
     transform="translate(-51.387591,-149.54607)">
    <path
       style="fill:#ffffff;stroke-width:0.0312572"
       d="m 53.196261,157.4989 c -0.43369,-0.0744 -0.828,-0.28497 -1.16705,-0.6232 -0.26967,-0.269 -0.43469,-0.53314 -0.55642,-0.8906 l -0.0852,-0.25006 v -2.20364 -2.20363 l 0.0852,-0.25005 c 0.12156,-0.35695 0.28656,-0.62133 0.55584,-0.89061 0.26928,-0.26928 0.53366,-0.43428 0.89061,-0.55584 l 0.25005,-0.0852 h 2.20364 2.20363 l 0.25006,0.0852 c 0.35694,0.12156 0.62132,0.28656 0.8906,0.55584 0.26928,0.26928 0.43429,0.53366 0.55585,0.89061 l 0.0851,0.25005 v 2.20363 2.20364 l -0.0851,0.25006 c -0.12156,0.35694 -0.28657,0.62132 -0.55585,0.8906 -0.26948,0.26948 -0.53403,0.43452 -0.8906,0.5556 l -0.25006,0.0849 -2.10986,0.005 c -1.16042,0.003 -2.18212,-0.007 -2.27044,-0.0224 z m 4.36682,-0.73585 c 0.2725,-0.0809 0.46655,-0.19453 0.65676,-0.38473 0.1902,-0.19021 0.30387,-0.38426 0.38473,-0.65677 0.0441,-0.14848 0.0504,-0.42319 0.0504,-2.19015 0,-2.19699 0.003,-2.15508 -0.17904,-2.51453 -0.10043,-0.19832 -0.39012,-0.488 -0.58844,-0.58843 -0.35945,-0.18203 -0.31753,-0.17904 -2.51453,-0.17904 -2.197,0 -2.15509,-0.003 -2.51453,0.17904 -0.19833,0.10043 -0.48801,0.39011 -0.58844,0.58843 -0.18203,0.35945 -0.17904,0.31754 -0.17904,2.51453 0,2.197 -0.003,2.15509 0.17904,2.51453 0.0969,0.19137 0.38679,0.48569 0.57254,0.58129 0.36415,0.18742 0.29944,0.18268 2.51694,0.18451 1.78265,0.002 2.05483,-0.005 2.20364,-0.0487 z m -2.56121,-1.20173 c -0.37579,-0.0672 -0.78846,-0.28883 -1.07924,-0.57961 -1.11438,-1.11438 -0.62597,-2.97283 0.90329,-3.43714 0.25978,-0.0789 0.83424,-0.0789 1.09401,0 0.70193,0.21312 1.23,0.74105 1.44183,1.44147 0.0777,0.257 0.0777,0.83373 0,1.09073 -0.20964,0.69315 -0.74494,1.23257 -1.4262,1.43719 -0.20982,0.063 -0.70554,0.0882 -0.93369,0.0474 z m 0.7879,-0.74906 c 0.38945,-0.12028 0.74381,-0.47483 0.86422,-0.86466 0.27194,-0.88046 -0.36835,-1.76025 -1.28106,-1.76025 -0.74473,0 -1.34406,0.59933 -1.34406,1.34405 0,0.91394 0.87895,1.55327 1.7609,1.28086 z m 1.49149,-2.97572 c -0.15669,-0.0839 -0.28296,-0.28231 -0.28296,-0.44455 0,-0.15729 0.12441,-0.36721 0.26569,-0.4483 0.0983,-0.0564 0.16039,-0.0692 0.29043,-0.06 0.18486,0.0132 0.29463,0.0788 0.40781,0.24374 0.061,0.0889 0.071,0.13629 0.0605,0.28668 -0.0277,0.39604 -0.39742,0.60666 -0.74146,0.42239 z"
       id="path14659" />
  </g>
</svg>
