<?xml version="1.0" encoding="UTF-8" standalone="no"?>
<!-- Created with Inkscape (http://www.inkscape.org/) -->

<svg
   width="10.875036mm"
   height="20.067751mm"
   viewBox="0 0 10.875036 20.067751"
   version="1.1"
   id="svg1703"
   inkscape:version="1.2.1 (9c6d41e410, 2022-07-14)"
   sodipodi:docname="icon-materials.svg"
   xmlns:inkscape="http://www.inkscape.org/namespaces/inkscape"
   xmlns:sodipodi="http://sodipodi.sourceforge.net/DTD/sodipodi-0.dtd"
   xmlns="http://www.w3.org/2000/svg"
   xmlns:svg="http://www.w3.org/2000/svg">
  <sodipodi:namedview
     id="namedview1705"
     pagecolor="#ffffff"
     bordercolor="#666666"
     borderopacity="1.0"
     inkscape:showpageshadow="2"
     inkscape:pageopacity="0.0"
     inkscape:pagecheckerboard="0"
     inkscape:deskcolor="#d1d1d1"
     inkscape:document-units="mm"
     showgrid="false"
     inkscape:zoom="1.6819304"
     inkscape:cx="91.858735"
     inkscape:cy="118.31643"
     inkscape:window-width="1440"
     inkscape:window-height="877"
     inkscape:window-x="-8"
     inkscape:window-y="-8"
     inkscape:window-maximized="1"
     inkscape:current-layer="layer1" />
  <defs
     id="defs1700" />
  <g
     inkscape:label="Capa 1"
     inkscape:groupmode="layer"
     id="layer1"
     transform="translate(61.963382,-110.7796)">
    <path
       style="fill:#7e7e7e;fill-opacity:1;stroke-width:2.28186;stroke-dasharray:none"
       d="m -60.335562,129.76919 c -1.240621,-2.11696 -1.349771,-2.70207 -1.44712,-7.75778 -0.06714,-3.48315 -0.01628,-4.82762 0.191722,-5.07831 0.168242,-0.2027 0.692151,-0.34094 1.292253,-0.34094 h 1.009307 l 0.07115,-1.10905 c 0.057,-0.88849 0.175651,-1.15489 0.596511,-1.33954 0.763124,-0.33479 0.719929,-1.28717 -0.05833,-1.28717 -0.526244,0 -0.583709,-0.0928 -0.583709,-0.9427 v -0.9427 l 2.159734,0.0671 2.159735,0.0671 0.06821,1.40814 c 0.0578,1.19325 0.146858,1.44267 0.583723,1.6344 0.409794,0.17985 0.530116,0.45371 0.586686,1.33531 l 0.07115,1.10905 h 0.991195 c 0.545159,0 1.117282,0.12614 1.271375,0.28018 0.367894,0.36789 0.38203,8.00727 0.01815,9.81904 -0.144108,0.71756 -0.600969,1.9171 -1.015261,2.66565 l -0.753247,1.36098 -3.290659,0.0647 -3.290659,0.0647 z m 7.842816,-1.14605 0.817199,-1.62791 0.07849,-4.96805 0.07849,-4.96804 h -4.943317 -4.943317 l 0.08049,4.96155 c 0.07435,4.58246 0.12147,5.05077 0.615879,6.12898 1.089518,2.37578 0.819521,2.24023 4.31509,2.16645 l 3.083894,-0.0651 z m -7.363237,-0.4151 c -0.313886,-0.67418 -0.564688,-1.43593 -0.55736,-1.69275 0.0067,-0.25684 0.146258,-0.0467 0.308707,0.46696 0.162449,0.51367 0.473332,1.27541 0.69083,1.69277 0.217511,0.41735 0.335404,0.75883 0.261988,0.75883 -0.07342,0 -0.390292,-0.55161 -0.704165,-1.22581 z m -0.722359,-4.61133 c 0,-1.34836 0.03858,-1.89997 0.0857,-1.22579 0.04712,0.67419 0.04712,1.7774 0,2.4516 -0.04712,0.67418 -0.0857,0.12254 -0.0857,-1.22581 z m -0.04952,-3.26879 c 0,-0.32104 0.05299,-0.45238 0.117732,-0.29185 0.06474,0.16052 0.06474,0.4232 0,0.58371 -0.06474,0.16053 -0.117732,0.0292 -0.117732,-0.29186 z m -0.01842,-1.30363 c 0.01068,-0.27198 0.06647,-0.32731 0.141065,-0.14105 0.06741,0.16854 0.05913,0.36993 -0.01842,0.44751 -0.07755,0.0776 -0.132816,-0.0603 -0.122671,-0.30646 z m 6.519155,-3.36607 v -1.16742 h -2.334851 -2.334851 v 1.16742 1.16743 h 2.334851 2.334851 z m -1.167419,-2.80182 v -1.40091 h -1.751142 c -1.595487,0 -1.751141,0.0415 -1.751141,0.46697 0,0.34245 0.155654,0.46698 0.583709,0.46698 0.525351,0 0.583723,0.0934 0.583723,0.93393 v 0.93394 h 1.167419 1.167432 z"
       id="path19489" />
    <path
       style="fill:#7e7e7e;fill-opacity:1;stroke-width:2.28186;stroke-dasharray:none"
       d="m -60.488454,129.57778 c -1.240621,-2.11695 -1.349771,-2.70206 -1.44712,-7.75777 -0.06714,-3.48315 -0.01628,-4.82763 0.191722,-5.07831 0.168243,-0.20271 0.692151,-0.34094 1.292253,-0.34094 h 1.009308 l 0.07115,-1.10905 c 0.057,-0.88849 0.175651,-1.1549 0.596511,-1.33954 0.763124,-0.33479 0.719929,-1.28717 -0.05833,-1.28717 -0.526245,0 -0.58371,-0.0928 -0.58371,-0.9427 v -0.9427 l 2.159735,0.0671 2.159734,0.0671 0.06821,1.40815 c 0.0578,1.19325 0.146858,1.44267 0.583723,1.63439 0.409794,0.17986 0.530116,0.45371 0.586686,1.33532 l 0.07115,1.10905 h 0.991194 c 0.545159,0 1.117282,0.12614 1.271376,0.28018 0.367893,0.36789 0.382029,8.00726 0.01815,9.81903 -0.144108,0.71757 -0.600969,1.91711 -1.015261,2.66565 l -0.753247,1.36099 -3.290659,0.0647 -3.290659,0.0647 z m 7.842816,-1.14604 0.817199,-1.62791 0.07849,-4.96806 0.07849,-4.96803 h -4.943317 -4.943316 l 0.08049,4.96155 c 0.07435,4.58246 0.12147,5.05077 0.615879,6.12898 1.089518,2.37578 0.819521,2.24023 4.315091,2.16645 l 3.083893,-0.0651 z m -7.363237,-0.4151 c -0.313886,-0.67418 -0.564688,-1.43593 -0.55736,-1.69275 0.0067,-0.25684 0.146258,-0.0467 0.308707,0.46696 0.16245,0.51367 0.473332,1.27541 0.69083,1.69277 0.217511,0.41735 0.335404,0.75883 0.261988,0.75883 -0.07342,0 -0.390292,-0.55161 -0.704165,-1.22581 z m -0.722359,-4.61133 c 0,-1.34837 0.03858,-1.89997 0.0857,-1.22579 0.04712,0.67419 0.04712,1.7774 0,2.4516 -0.04712,0.67418 -0.0857,0.12253 -0.0857,-1.22581 z m -0.04952,-3.26879 c 0,-0.32104 0.05299,-0.45238 0.117732,-0.29185 0.06474,0.16051 0.06474,0.4232 0,0.58371 -0.06474,0.16053 -0.117732,0.0292 -0.117732,-0.29186 z m -0.01842,-1.30363 c 0.01068,-0.27198 0.06647,-0.32731 0.141066,-0.14105 0.06741,0.16854 0.05913,0.36992 -0.01842,0.4475 -0.07755,0.0776 -0.132816,-0.0603 -0.122671,-0.30645 z m 6.519155,-3.36607 v -1.16742 h -2.334851 -2.334851 v 1.16742 1.16743 h 2.334851 2.334851 z m -1.167419,-2.80182 v -1.40091 h -1.751142 c -1.595486,0 -1.751141,0.0415 -1.751141,0.46697 0,0.34245 0.155655,0.46697 0.583709,0.46697 0.525351,0 0.583723,0.0934 0.583723,0.93393 v 0.93395 h 1.167419 1.167432 z"
       id="path19489-2" />
    <rect
       style="fill:none;fill-opacity:1;stroke:#7e7e7e;stroke-width:0.353174;stroke-linecap:round;stroke-linejoin:round;stroke-dasharray:none;stroke-opacity:1;paint-order:stroke markers fill"
       id="rect12118"
       width="6.2994537"
       height="3.5696907"
       x="-59.219994"
       y="118.64774" />
  </g>
</svg>
