<?xml version="1.0" encoding="UTF-8" standalone="no"?>
<!-- Created with Inkscape (http://www.inkscape.org/) -->

<svg
   width="23.241859mm"
   height="24.148029mm"
   viewBox="0 0 23.241859 24.14803"
   version="1.1"
   id="svg9984"
   inkscape:version="1.2.1 (9c6d41e410, 2022-07-14)"
   sodipodi:docname="icon-lymphatic-drainage.svg"
   xmlns:inkscape="http://www.inkscape.org/namespaces/inkscape"
   xmlns:sodipodi="http://sodipodi.sourceforge.net/DTD/sodipodi-0.dtd"
   xmlns="http://www.w3.org/2000/svg"
   xmlns:svg="http://www.w3.org/2000/svg">
  <sodipodi:namedview
     id="namedview9986"
     pagecolor="#ffffff"
     bordercolor="#666666"
     borderopacity="1.0"
     inkscape:showpageshadow="2"
     inkscape:pageopacity="0.0"
     inkscape:pagecheckerboard="0"
     inkscape:deskcolor="#d1d1d1"
     inkscape:document-units="mm"
     showgrid="false"
     inkscape:zoom="1.6819304"
     inkscape:cx="167.36721"
     inkscape:cy="107.61444"
     inkscape:window-width="1440"
     inkscape:window-height="877"
     inkscape:window-x="-8"
     inkscape:window-y="-8"
     inkscape:window-maximized="1"
     inkscape:current-layer="layer1" />
  <defs
     id="defs9981" />
  <g
     inkscape:label="Capa 1"
     inkscape:groupmode="layer"
     id="layer1"
     transform="translate(49.958905,38.342983)">
    <path
       style="fill:#7e7e7e;fill-opacity:1;stroke-width:0.092599"
       d="m -47.04001,-14.295108 c -0.19823,-0.205822 -0.1179,-0.390775 0.61676,-1.4203 0.60217,-0.843858 0.80152,-1.053239 1.20087,-1.261375 0.63053,-0.328595 1.18936,-0.807243 1.51163,-1.294729 0.14364,-0.217275 0.51405,-1.009424 0.82313,-1.760328 0.59909,-1.455457 0.63206,-1.718965 0.23842,-1.905199 -0.40908,-0.193525 -0.62667,-0.03752 -1.12246,0.804931 -0.47513,0.807311 -0.71795,1.003022 -1.24449,1.003022 -0.34252,0 -0.77148,-0.199531 -0.88349,-0.410938 -0.17871,-0.337318 -0.60616,-3.283384 -0.51321,-3.537205 0.0447,-0.122132 0.38963,-0.596385 0.76649,-1.053897 l 0.68519,-0.831849 -0.0275,-0.531934 -0.0275,-0.531932 -1.72662,1.528225 c -0.94964,0.840524 -1.78797,1.617617 -1.86294,1.726876 -0.075,0.109256 -0.15676,0.4915 -0.18175,0.849432 -0.0336,0.48192 -0.0866,0.677671 -0.20447,0.75437 -0.6153,0.400764 -0.70108,-1.272823 -0.10673,-2.082942 0.28459,-0.387933 0.30399,-1.263668 0.0437,-1.974625 -0.72473,-1.979802 -0.23498,-4.364022 1.22692,-5.973089 0.72552,-0.798564 1.19489,-1.098809 2.89297,-1.850599 1.50218,-0.665059 1.99207,-1.06639 2.43055,-1.991199 0.23098,-0.487145 0.29934,-0.766934 0.33242,-1.360449 0.0447,-0.801863 0.15029,-0.998154 0.47869,-0.889927 0.18682,0.06155 0.19459,0.109035 0.1608,0.982386 -0.0311,0.804849 -0.0722,0.995053 -0.33373,1.546724 -0.16404,0.345959 -0.49368,0.837348 -0.73254,1.091976 -0.47684,0.508313 -0.8364,0.71818 -2.52897,1.476077 -1.26892,0.568198 -1.93509,1.040943 -2.49254,1.768811 -1.03907,1.356744 -1.36758,3.387784 -0.79687,4.926653 0.11547,0.311372 0.23277,0.728191 0.26064,0.926255 l 0.0508,0.360117 1.54487,-1.372176 c 1.41141,-1.253625 1.5488,-1.402937 1.59031,-1.728281 0.0411,-0.322291 0.0713,-0.356113 0.31806,-0.356113 h 0.27263 l 0.0492,3.019404 c 0.0336,2.059329 0.0844,3.104729 0.16001,3.287753 l 0.11077,0.268341 0.31031,-0.282896 c 0.55786,-0.508567 1.21776,-0.48127 1.72777,0.07145 0.44546,0.48277 0.4205,0.915491 -0.13134,2.277919 -0.63398,1.565181 -0.76948,1.835241 -1.23028,2.452055 l -0.39303,0.526126 -0.0645,1.17229 c -0.0725,1.319508 -0.14021,1.596901 -0.3893,1.596901 -0.33478,0 -0.38739,-0.206424 -0.32166,-1.26204 l 0.0621,-0.99814 -0.35401,0.148258 c -0.27513,0.115216 -0.51608,0.372139 -1.08103,1.152669 -0.72931,1.007601 -0.90771,1.158482 -1.11511,0.94313 z m 2.43476,-6.781347 c 0.0778,-0.150762 0.0557,-0.309358 -0.10171,-0.731263 -0.15723,-0.421467 -0.21015,-0.80111 -0.24315,-1.744021 -0.0466,-1.332159 -0.0396,-1.324545 -0.57567,-0.621743 l -0.27562,0.361329 0.18942,1.251811 c 0.27095,1.790548 0.23048,1.676406 0.59441,1.676406 0.22219,0 0.34195,-0.05594 0.41237,-0.192519 z m 14.29022,6.441337 c -0.1886,-0.247769 -0.52692,-0.71184 -0.75183,-1.031276 -0.28735,-0.408104 -0.51421,-0.624201 -0.76298,-0.726787 l -0.35402,-0.145984 0.0621,0.998141 c 0.0657,1.055615 0.0131,1.262039 -0.32166,1.262039 -0.24908,0 -0.3167,-0.277392 -0.3893,-1.596901 l -0.0645,-1.17229 -0.39303,-0.526126 c -0.4608,-0.616815 -0.59628,-0.886875 -1.23026,-2.452055 -0.55185,-1.362428 -0.57681,-1.795149 -0.13135,-2.277919 0.51002,-0.552731 1.16991,-0.580028 1.72776,-0.07145 l 0.31032,0.282897 0.10964,-0.268342 c 0.0739,-0.180859 0.12603,-1.252762 0.16003,-3.287753 l 0.0504,-3.019403 h 0.27262 c 0.24673,0 0.27694,0.03383 0.31806,0.356112 0.0415,0.325317 0.17902,0.474806 1.59032,1.728774 1.48764,1.321822 1.54585,1.362803 1.5715,1.106416 0.0145,-0.146444 0.13732,-0.584704 0.27263,-0.973925 0.21609,-0.621682 0.24513,-0.839532 0.23902,-1.792774 -0.008,-1.198998 -0.15581,-1.781101 -0.67714,-2.660835 -0.31104,-0.524866 -0.29631,-0.830356 0.04,-0.830356 0.26261,0 0.41711,0.184448 0.77266,0.922365 0.62127,1.289377 0.76282,2.920857 0.36618,4.220066 -0.11087,0.363265 -0.21949,0.961834 -0.24131,1.330145 -0.0355,0.600082 -0.0155,0.706618 0.19294,1.025512 0.36971,0.565685 0.41589,0.914192 0.41642,3.143734 4.6e-4,2.055193 0.006,2.113058 0.2277,2.568079 0.27609,0.565713 0.28313,0.717126 0.0397,0.852437 -0.25759,0.143136 -0.41578,-0.0098 -0.73551,-0.710903 l -0.25816,-0.566136 -6.3e-4,-2.264555 c -5.4e-4,-1.995487 -0.0196,-2.293864 -0.15911,-2.511248 -0.0872,-0.135674 -0.93544,-0.933997 -1.88508,-1.77405 l -1.72663,-1.52736 -0.0273,0.525756 -0.0273,0.525764 0.68521,0.838587 c 0.37688,0.461217 0.72139,0.93803 0.76558,1.05958 0.12602,0.346499 -0.0671,1.387457 -0.27921,1.505337 -0.12581,0.06991 -0.21368,0.06306 -0.31542,-0.02457 -0.11143,-0.09608 -0.12939,-0.240718 -0.0855,-0.690638 0.0551,-0.565022 0.0528,-0.572477 -0.33027,-1.03698 l -0.38576,-0.467872 -0.0524,1.175543 c -0.0381,0.856681 -0.1064,1.336225 -0.25173,1.767928 -0.24559,0.72973 -0.17122,0.964497 0.30555,0.964497 0.26775,0 0.32108,-0.03758 0.3679,-0.259482 0.0921,-0.436782 0.12132,-0.497653 0.26587,-0.555244 0.21867,-0.08713 0.40983,0.146429 0.40983,0.50072 0,0.838257 -0.6876,1.270658 -1.53364,0.964422 -0.22151,-0.08018 -0.39709,-0.288888 -0.75592,-0.898588 -0.46214,-0.785247 -0.6539,-0.945361 -1.03978,-0.868204 -0.0898,0.01794 -0.22376,0.144862 -0.29793,0.282056 -0.12798,0.23676 -0.10562,0.320702 0.43999,1.650568 0.31617,0.770623 0.69255,1.578901 0.8364,1.796176 0.32295,0.487719 0.88187,0.966312 1.51205,1.294731 0.39937,0.208134 0.59869,0.417516 1.20088,1.261374 0.73244,1.026402 0.81472,1.214738 0.6194,1.417547 -0.18907,0.196318 -0.3312,0.126247 -0.684,-0.337256 z m -8.19699,-0.06025 c -0.064,-0.08018 -0.0957,-0.371633 -0.0793,-0.731265 0.0272,-0.595212 0.0285,-0.597964 0.29988,-0.597964 0.27136,0 0.27276,0.0028 0.29989,0.597964 0.0272,0.595454 -0.0662,0.864556 -0.29989,0.864556 -0.0627,0 -0.16201,-0.05998 -0.22061,-0.133291 z m -11.29778,-2.988025 c -0.2105,-0.127307 -0.20057,-0.296664 0.0454,-0.774641 0.1684,-0.327166 0.21249,-0.595275 0.24991,-1.519633 0.0378,-0.933661 0.0722,-1.139831 0.20447,-1.226149 0.11566,-0.07548 0.20239,-0.07543 0.31806,1.84e-4 0.13329,0.08712 0.1632,0.275428 0.1848,1.163575 0.0236,0.970098 0.006,1.104574 -0.20872,1.591437 -0.22523,0.510846 -0.46684,0.870347 -0.58085,0.864294 -0.0297,-0.0013 -0.12564,-0.04614 -0.2131,-0.09907 z m 11.26091,-0.149701 c -0.0333,-0.03457 -0.0606,-0.354379 -0.0606,-0.710635 0,-0.687119 0.12618,-0.877693 0.44401,-0.670647 0.18274,0.119044 0.25454,1.110858 0.0949,1.310614 -0.11165,0.139693 -0.37442,0.178518 -0.4783,0.07067 z m -2.20758,-2.340082 c -0.0308,-0.08343 0.014,-0.410952 0.0997,-0.727841 0.24169,-0.894391 0.0836,-1.614235 -0.50975,-2.321537 -0.14301,-0.170467 -0.26002,-0.347889 -0.26002,-0.394273 0,-0.117791 0.2652,-0.380882 0.38395,-0.380882 0.19933,0 0.80022,0.798749 0.98658,1.311448 0.36358,1.000181 0.10194,2.55219 -0.44408,2.634544 -0.12038,0.01814 -0.22263,-0.03033 -0.25633,-0.121459 z m 4.28151,-0.08588 c -0.55853,-0.88508 -0.36845,-2.485738 0.39749,-3.347177 0.38271,-0.430444 0.47558,-0.463292 0.68756,-0.243204 0.1951,0.202577 0.18259,0.269527 -0.11722,0.626885 -0.59339,0.707302 -0.75145,1.427146 -0.50975,2.321537 0.0856,0.316889 0.13157,0.641439 0.10204,0.721219 -0.081,0.219124 -0.4004,0.173931 -0.56017,-0.07926 z m -2.06976,-0.777825 c -0.0355,-0.03697 -0.0647,-0.330952 -0.0647,-0.65327 0,-0.652805 0.15885,-0.918579 0.43927,-0.73492 0.11741,0.07689 0.15141,0.245174 0.15141,0.749379 0,0.625871 -0.008,0.651251 -0.23058,0.678129 -0.12683,0.01533 -0.25975,-0.002 -0.29535,-0.0393 z m -4.97411,-3.000767 c -0.14551,-0.151093 -0.10104,-0.418381 0.0871,-0.522883 0.0967,-0.05374 0.40338,-0.09768 0.68156,-0.09768 0.59729,0 0.9431,0.246613 0.78257,0.558079 -0.0773,0.149929 -0.19353,0.174698 -0.77663,0.165483 -0.37717,-0.0062 -0.72569,-0.0523 -0.77451,-0.102999 z m 8.81398,-0.06025 c -0.16178,-0.313891 0.18188,-0.560339 0.7814,-0.560339 0.58376,0 0.85734,0.119715 0.85734,0.37518 0,0.265329 -0.15563,0.326014 -0.88694,0.345849 -0.56475,0.01533 -0.673,-0.0078 -0.7518,-0.16069 z m -3.80717,-0.127494 c -0.064,-0.08018 -0.0957,-0.371631 -0.0793,-0.731263 0.0272,-0.595212 0.0285,-0.597965 0.29988,-0.597965 0.27136,0 0.27276,0.0028 0.29989,0.597965 0.0272,0.595453 -0.0662,0.864563 -0.29989,0.864563 -0.0627,0 -0.16201,-0.05998 -0.22061,-0.1333 z m -0.0369,-3.137728 c -0.0333,-0.03458 -0.0606,-0.35019 -0.0606,-0.701311 0,-0.56053 0.0227,-0.645895 0.18612,-0.699742 0.30518,-0.100576 0.45001,0.113697 0.45001,0.665765 0,0.274832 -0.0248,0.566855 -0.0552,0.648942 -0.0549,0.148415 -0.40469,0.206465 -0.52037,0.08634 z m 0.0961,-3.157897 c -0.12258,-0.07123 -0.15669,-0.220988 -0.15669,-0.68812 0,-0.681812 0.1323,-0.893508 0.44857,-0.717762 0.15964,0.08871 0.18756,0.194532 0.18756,0.710902 0,0.484577 -0.0325,0.624721 -0.16137,0.696348 -0.10238,0.05689 -0.21868,0.05641 -0.31807,-0.0013 z m 8.34977,-1.913324 c -0.14462,-0.124144 -0.93073,-0.530886 -1.74689,-0.903874 -0.81617,-0.372988 -1.66472,-0.82147 -1.88566,-0.996634 -0.49461,-0.392131 -1.10027,-1.315022 -1.28355,-1.955853 -0.1937,-0.677246 -0.18647,-1.941113 0.0115,-2.02001 0.31327,-0.124822 0.43973,0.100543 0.49673,0.885244 0.0625,0.860729 0.33442,1.57697 0.81394,2.144045 0.39686,0.469324 0.76811,0.706227 1.86517,1.190221 1.89692,0.836882 2.52651,1.245657 2.47718,1.608381 -0.0431,0.317081 -0.40801,0.340709 -0.74848,0.04848 z m -8.409,-1.321048 c -0.064,-0.08017 -0.0957,-0.371633 -0.0794,-0.731263 0.0272,-0.595214 0.0285,-0.597966 0.29988,-0.597966 0.27138,0 0.27275,0.0028 0.29989,0.597966 0.0272,0.595452 -0.0662,0.864561 -0.29989,0.864561 -0.0627,0 -0.162,-0.05998 -0.22059,-0.133298 z m -0.0327,-3.133394 c -0.0356,-0.03697 -0.0647,-0.354517 -0.0647,-0.705646 0,-0.560529 0.0227,-0.645896 0.18612,-0.699743 0.33891,-0.111691 0.46025,0.111979 0.43112,0.79473 -0.025,0.587237 -0.0394,0.623618 -0.25713,0.649977 -0.12683,0.01533 -0.25973,-0.002 -0.29534,-0.0393 z"
       id="path15749" />
  </g>
</svg>
