<?xml version="1.0" encoding="UTF-8" standalone="no"?>
<!-- Created with Inkscape (http://www.inkscape.org/) -->

<svg
   width="20.261145mm"
   height="22.977327mm"
   viewBox="0 0 20.261144 22.977328"
   version="1.1"
   id="svg9984"
   inkscape:version="1.2.1 (9c6d41e410, 2022-07-14)"
   sodipodi:docname="icon-foot-reflexology.svg"
   xmlns:inkscape="http://www.inkscape.org/namespaces/inkscape"
   xmlns:sodipodi="http://sodipodi.sourceforge.net/DTD/sodipodi-0.dtd"
   xmlns="http://www.w3.org/2000/svg"
   xmlns:svg="http://www.w3.org/2000/svg">
  <sodipodi:namedview
     id="namedview9986"
     pagecolor="#ffffff"
     bordercolor="#666666"
     borderopacity="1.0"
     inkscape:showpageshadow="2"
     inkscape:pageopacity="0.0"
     inkscape:pagecheckerboard="0"
     inkscape:deskcolor="#d1d1d1"
     inkscape:document-units="mm"
     showgrid="false"
     inkscape:zoom="1.6819304"
     inkscape:cx="81.751302"
     inkscape:cy="86.805019"
     inkscape:window-width="1440"
     inkscape:window-height="877"
     inkscape:window-x="-8"
     inkscape:window-y="-8"
     inkscape:window-maximized="1"
     inkscape:current-layer="layer1" />
  <defs
     id="defs9981" />
  <g
     inkscape:label="Capa 1"
     inkscape:groupmode="layer"
     id="layer1"
     transform="translate(27.38909,32.881042)">
    <path
       style="fill:#7e7e7e;fill-opacity:1;stroke-width:0.0898501"
       d="m -17.87106,-10.009244 c -0.90394,-0.256442 -1.6822,-0.906784 -2.11787,-1.769775 -0.21169,-0.419329 -0.25489,-0.631237 -0.28521,-1.399124 -0.03,-0.759174 -0.0115,-0.92924 0.11507,-1.055742 0.17236,-0.172367 0.22171,-0.180305 0.40403,-0.06499 0.0986,0.06247 0.13328,0.290307 0.13937,0.91959 0.009,0.984224 0.18762,1.474542 0.73405,2.020978 0.50508,0.505078 0.94679,0.690153 1.74342,0.730507 0.8643,0.04378 1.43135,-0.178293 1.99563,-0.781547 0.42527,-0.45467 0.59195,-0.836652 0.84365,-1.933515 0.18224,-0.794121 0.36607,-1.012016 0.63064,-0.747453 0.14881,0.148814 0.14873,0.19444 -0.002,0.924938 -0.22777,1.106591 -0.45253,1.638052 -0.91714,2.168687 -0.77653,0.886919 -2.16586,1.304664 -3.284,0.987449 z m 6.46109,-2.74437 c -0.11559,-0.140688 -0.43139,-0.559325 -0.70178,-0.930305 -0.39844,-0.546669 -0.59469,-0.727949 -1.03546,-0.956473 -0.57354,-0.297365 -1.27613,-0.925068 -1.62462,-1.451438 -0.30049,-0.453869 -1.38572,-3.03072 -1.38572,-3.290343 0,-0.656723 0.56443,-1.23212 1.20865,-1.23212 0.56057,0 0.87635,0.240529 1.35481,1.03201 0.40832,0.675417 0.44019,0.705095 0.75715,0.705095 h 0.33087 l 0.19762,-1.280367 c 0.1087,-0.704202 0.19685,-1.346478 0.19589,-1.427281 -0.003,-0.231193 -0.8295,-1.190515 -0.90431,-1.049304 -0.0344,0.06491 -0.1136,0.401044 -0.17594,0.746967 -0.13669,0.758115 -0.22334,0.943429 -0.44111,0.943429 -0.39728,0 -0.3974,-0.171 -0.002,-2.128245 0.51157,-2.529799 0.48537,-3.14067 -0.17592,-4.101824 -0.56178,-0.816518 -1.22799,-1.148552 -2.81548,-1.403226 -1.2694,-0.203645 -1.51579,-0.279984 -1.93454,-0.599375 -0.43677,-0.333145 -0.68108,-0.872568 -0.70696,-1.561009 -0.0121,-0.321214 -0.0246,-0.651674 -0.0279,-0.734354 -0.003,-0.08268 -0.13037,-0.274733 -0.28243,-0.426788 -0.23265,-0.232653 -0.34546,-0.276462 -0.71188,-0.276462 -0.3626,0 -0.47986,0.04444 -0.70113,0.2657 -0.31965,0.319646 -0.39026,0.693005 -0.2172,1.148392 0.37486,0.986397 0.41735,1.346973 0.28763,2.4413 -0.0679,0.572796 -0.12672,1.619786 -0.13073,2.326643 -0.008,1.388651 -0.0725,1.579207 -0.45102,1.328745 -0.15524,-0.102741 -0.18646,-0.246892 -0.22515,-1.039596 l -0.0449,-0.920312 -0.29202,0.364054 c -0.34469,0.429725 -0.34676,0.481191 -0.082,2.036821 l 0.19874,1.168054 0.31228,0.02603 c 0.30284,0.02523 0.32551,0.0039 0.74809,-0.703134 0.52371,-0.876259 0.82546,-1.100097 1.41494,-1.049551 0.6704,0.05748 1.1623,0.56807 1.15719,1.201137 -0.003,0.331253 -0.71753,2.007088 -0.90669,2.125536 -0.21111,0.132198 -0.439,0.01072 -0.439,-0.233947 0,-0.116573 0.16232,-0.586195 0.36072,-1.043601 0.32325,-0.745319 0.34889,-0.856306 0.24686,-1.069145 -0.0626,-0.130621 -0.22368,-0.276134 -0.35797,-0.32336 -0.30994,-0.108991 -0.49627,0.04847 -0.94178,0.795879 -0.53528,0.898017 -0.60173,0.948037 -1.25935,0.948037 -0.88517,0 -0.93082,-0.07306 -1.23211,-1.971411 -0.17439,-1.098782 -0.22187,-1.614998 -0.1608,-1.748141 0.0477,-0.103915 0.36954,-0.523376 0.71526,-0.932138 0.62491,-0.738863 0.74232,-1.014038 0.74232,-1.739699 0,-0.216334 -3.44365,2.696348 -3.66416,3.099186 -0.13047,0.238357 -0.16146,0.631324 -0.1994,2.528475 l -0.0449,2.246257 -0.67389,1.27856 c -0.37062,0.703207 -0.72733,1.299443 -0.79268,1.324968 -0.1524,0.05953 -0.46521,-0.106209 -0.46521,-0.246479 0,-0.05913 0.30324,-0.700455 0.67387,-1.425166 l 0.67388,-1.317655 v -2.014899 c 0,-2.900091 -0.17521,-2.576247 2.71146,-5.011223 l 1.75666,-1.48178 -0.21243,-0.564365 c -0.25423,-0.675442 -0.26411,-1.023764 -0.0425,-1.50369 0.39369,-0.853027 1.31914,-1.239483 2.14342,-0.895076 0.18192,0.07601 0.39932,0.200248 0.48311,0.276084 0.13702,0.123989 0.17989,0.123645 0.42562,-0.0034 0.62942,-0.325481 1.47086,-0.111329 1.91316,0.486911 0.16013,0.216601 0.25345,0.267823 0.41435,0.227441 0.37619,-0.09442 0.89029,0.114654 1.21512,0.494145 0.26209,0.306199 0.35741,0.35735 0.66585,0.35735 0.47561,0 0.92415,0.304545 1.1436,0.77648 0.1528,0.328587 0.21589,0.377901 0.53904,0.421245 0.54056,0.07251 0.95013,0.544836 0.95013,1.095716 0,0.526877 -0.27631,1.066046 -0.67831,1.32359 -0.24132,0.154608 -0.30174,0.243497 -0.25919,0.381306 0.20511,0.664432 0.30855,1.104912 0.30855,1.313754 0,0.203109 0.29518,0.49258 1.86439,1.828375 2.27458,1.936232 2.28463,1.950866 2.2491,3.279208 l -0.0253,0.946384 h -0.26956 -0.26954 l -0.0449,-0.903791 c -0.0293,-0.589482 -0.0918,-0.973202 -0.17972,-1.103381 -0.24759,-0.366675 -3.36646,-2.971064 -3.42524,-2.860229 -0.0307,0.05794 -0.0833,0.25784 -0.11676,0.444233 -0.0582,0.323498 -0.0307,0.374528 0.60434,1.123128 0.36587,0.431327 0.69437,0.876229 0.73003,0.988668 0.0368,0.116289 -0.0422,0.852382 -0.18351,1.707156 -0.22269,1.347709 -0.27365,1.528207 -0.49404,1.749808 -0.19595,0.197019 -0.32822,0.247088 -0.65276,0.247088 -0.63376,0 -0.82921,-0.140877 -1.31796,-0.950035 -0.24521,-0.405966 -0.50966,-0.762611 -0.58767,-0.792545 -0.39563,-0.151821 -0.75609,0.08749 -0.75609,0.501985 0,0.327164 1.09073,2.779341 1.42268,3.198461 0.34286,0.43289 0.7227,0.728154 1.33675,1.039126 0.37564,0.190234 0.59933,0.41043 1.13107,1.113414 0.81919,1.083027 0.88132,1.195665 0.76963,1.395242 -0.12889,0.23031 -0.39406,0.18794 -0.63135,-0.10087 z m -1.52967,-15.15326 c 0.45015,-0.378792 0.47863,-0.964843 0.0548,-1.126021 -0.3072,-0.116792 -0.41099,-0.04969 -0.68211,0.441015 l -0.23976,0.43394 0.23772,0.237712 c 0.29102,0.291024 0.29922,0.291198 0.62942,0.01336 z m -1.20906,-0.966156 c 0.32981,-0.528486 0.19577,-1.264665 -0.25066,-1.376709 -0.3046,-0.07645 -0.5003,0.0068 -0.5003,0.213071 0,0.09201 -0.0944,0.35378 -0.2098,0.581709 l -0.20981,0.414417 0.41197,0.177565 c 0.53752,0.231679 0.60835,0.230741 0.7586,-0.01004 z m -1.71358,-0.600067 c 0.44451,-0.528271 0.35614,-1.457161 -0.15073,-1.584377 -0.35729,-0.08968 -0.42923,-0.01914 -0.46675,0.457748 -0.0194,0.245481 -0.13348,0.63599 -0.25373,0.867795 l -0.2186,0.421464 0.1951,0.03802 c 0.50244,0.09791 0.67632,0.0589 0.89471,-0.200645 z m -1.40987,-0.653376 c 0.28722,-0.552027 0.0323,-1.539373 -0.45481,-1.761298 -0.29177,-0.132941 -0.42884,-0.134824 -0.70354,-0.0097 -0.20461,0.09322 -0.21306,0.13067 -0.17753,0.78619 0.0453,0.834304 0.14447,1.116235 0.49747,1.413263 l 0.26996,0.227146 0.2211,-0.206504 c 0.12161,-0.113577 0.27791,-0.315684 0.34735,-0.449129 z m 9.58629,15.903372 c -0.0513,-0.06416 -0.3828,-0.690792 -0.73671,-1.392524 l -0.64343,-1.275873 0.0258,-0.880533 c 0.0249,-0.851206 0.033,-0.881541 0.24024,-0.910855 0.30305,-0.04284 0.36662,0.113725 0.36819,0.906849 10e-4,0.693105 0.006,0.703843 0.68952,2.011423 0.53071,1.013834 0.66737,1.347766 0.59732,1.45958 -0.11674,0.186311 -0.42063,0.232344 -0.54089,0.08194 z m -12.31932,-0.95847 c -0.0909,-0.05762 -0.12257,-0.482913 -0.13477,-1.808295 -0.0143,-1.556111 -6e-5,-1.742968 0.13961,-1.831077 0.12065,-0.07611 0.1912,-0.0625 0.31447,0.06062 0.13764,0.137479 0.16288,0.373155 0.18848,1.759523 0.0257,1.39349 0.0103,1.61998 -0.11873,1.749053 -0.16751,0.167494 -0.2205,0.177052 -0.38906,0.07018 z m -3.65361,-1.595722 c -0.0805,-0.08049 -0.12751,-0.195521 -0.10448,-0.255607 0.023,-0.06008 0.36751,-0.552106 0.76546,-1.093376 0.65213,-0.887039 0.77742,-1.009893 1.26989,-1.245272 0.3389,-0.161976 0.73089,-0.45459 1.0323,-0.770581 0.26725,-0.280193 0.54739,-0.53303 0.62252,-0.56186 0.1586,-0.06086 0.41137,0.15974 0.41137,0.359008 0,0.228231 -1.08937,1.232014 -1.645,1.515763 -0.44712,0.228339 -0.62538,0.404831 -1.24483,1.232396 -0.39764,0.531239 -0.77651,0.96589 -0.84194,0.96589 -0.0654,0 -0.18483,-0.06587 -0.26532,-0.146361 z m 6.02664,-1.493406 c -0.56106,-0.865889 -0.32406,-2.465833 0.48181,-3.252756 0.2981,-0.29108 0.36913,-0.322273 0.53355,-0.234278 0.24221,0.129621 0.24231,0.379173 2.8e-4,0.597899 -0.56512,0.510678 -0.80097,1.673793 -0.49021,2.417555 0.0788,0.188807 0.11985,0.417638 0.091,0.508514 -0.0745,0.234622 -0.45525,0.211807 -0.61642,-0.03693 z m 1.80405,-3.541598 c -0.15158,-0.151575 -0.0514,-0.486857 0.17057,-0.571276 0.30281,-0.11513 0.99358,-0.112059 1.21303,0.0054 0.20952,0.112139 0.23076,0.49486 0.0317,0.571253 -0.19252,0.07387 -1.34039,0.06953 -1.41528,-0.0054 z m -1.5115,-0.930906 c -0.12518,-0.07308 -0.14125,-0.19729 -0.1014,-0.783457 0.0541,-0.795569 -0.052,-1.145478 -0.50353,-1.659746 -0.37486,-0.426951 -0.90561,-0.63456 -1.60536,-0.627969 -0.48267,0.0046 -0.57631,-0.02144 -0.66337,-0.184138 -0.0855,-0.159754 -0.0679,-0.216628 0.11269,-0.363028 0.17831,-0.144568 0.31391,-0.166478 0.81095,-0.13102 1.63924,0.116936 2.79558,1.547607 2.55383,3.159705 -0.0559,0.372545 -0.23791,0.686227 -0.39419,0.679224 -0.0335,-0.0016 -0.1279,-0.04181 -0.20972,-0.08957 z"
       id="path15316" />
  </g>
</svg>
