<?xml version="1.0" encoding="UTF-8" standalone="no"?>
<!-- Created with Inkscape (http://www.inkscape.org/) -->

<svg
   width="39.87458mm"
   height="38.435925mm"
   viewBox="0 0 39.874581 38.435925"
   version="1.1"
   id="svg671"
   inkscape:version="1.2.1 (9c6d41e410, 2022-07-14)"
   sodipodi:docname="logo.svg"
   xmlns:inkscape="http://www.inkscape.org/namespaces/inkscape"
   xmlns:sodipodi="http://sodipodi.sourceforge.net/DTD/sodipodi-0.dtd"
   xmlns="http://www.w3.org/2000/svg"
   xmlns:svg="http://www.w3.org/2000/svg">
  <sodipodi:namedview
     id="namedview673"
     pagecolor="#ffffff"
     bordercolor="#666666"
     borderopacity="1.0"
     inkscape:showpageshadow="2"
     inkscape:pageopacity="0.0"
     inkscape:pagecheckerboard="0"
     inkscape:deskcolor="#d1d1d1"
     inkscape:document-units="mm"
     showgrid="false"
     inkscape:zoom="2.3786088"
     inkscape:cx="0.21020691"
     inkscape:cy="51.290485"
     inkscape:window-width="1920"
     inkscape:window-height="1009"
     inkscape:window-x="1432"
     inkscape:window-y="-8"
     inkscape:window-maximized="1"
     inkscape:current-layer="layer1" />
  <defs
     id="defs668" />
  <g
     inkscape:label="Capa 1"
     inkscape:groupmode="layer"
     id="layer1"
     transform="translate(-115.62068,-121.11416)">
    <path
       style="fill:#ffffff;stroke:none;stroke-width:0.108018"
       d="m 128.81849,136.43509 -0.21605,0.6481 -0.43207,-0.21603 0.43207,1.08019 c -0.30192,0.40053 -0.17823,0.85647 0.0187,1.29623 0.7666,1.70245 2.35804,1.13709 3.4366,2.16036 -2.20874,0 -4.28388,0.0157 -6.15705,-1.37842 -1.67548,-1.24621 -2.66035,-3.19594 -4.10469,-4.67061 h -0.10794 c -0.41673,0.81348 0.28526,1.86159 0.68147,2.59244 1.09966,2.02848 2.73309,4.33671 5.04347,5.0546 3.19747,0.99344 6.69693,2.70866 10.04573,3.02766 2.0521,0.19541 4.53448,-0.88837 6.37306,-1.67883 1.55419,-0.66821 3.40753,-0.96602 4.86081,-1.80888 1.59879,-0.92713 2.67571,-2.41087 3.63816,-3.94645 0.58849,-0.93922 1.21254,-2.00104 1.22268,-3.13252 -0.67037,0.10434 -1.00727,0.68148 -1.40272,1.18819 -0.7337,0.94019 -1.39303,1.98193 -2.27034,2.79844 -1.94294,1.80811 -4.20117,1.95469 -6.6967,1.95438 0.54893,-0.54788 1.38987,-0.43489 2.05235,-0.8136 1.22145,-0.69833 1.68573,-2.40352 1.7283,-3.72318 l -0.43209,0.21603 -0.21604,-0.6481 c -3.14201,1.51484 -3.8264,-3.26841 -4.2127,-5.29289 -0.10904,-0.57132 -0.0829,-1.21879 -0.44646,-1.7053 -0.71276,-0.9538 -2.94636,-0.46458 -3.14878,-1.85931 -0.0981,-0.67577 0.72404,-1.40759 0.88801,-2.05234 0.29651,-1.16681 -0.39136,-2.34776 -0.97551,-3.25306 -0.30028,-0.46537 -0.0476,-1.13726 -0.85444,-1.15761 -0.78765,-0.0197 -0.60167,0.66136 -0.86641,1.13928 -0.52281,0.94397 -1.24555,1.9713 -1.00165,3.16336 0.14314,0.70072 1.11853,1.56303 0.96362,2.26676 -0.26495,1.20408 -2.44844,0.92378 -3.14483,1.84269 -0.91815,1.21154 -0.57303,3.24086 -0.98103,4.64003 -0.15885,0.54463 -0.66601,0.96613 -1.00542,1.40423 -0.80044,1.033 -1.44022,1.47867 -2.71341,0.86416 m 6.58911,-12.53011 c -1.76105,1.74556 -2.36732,4.35551 -2.80848,6.69712 h 0.10794 c 0.91203,-1.94227 2.62496,-3.25676 2.64624,-5.50892 0.002,-0.43035 0.22511,-0.76852 0.0543,-1.1882 m 4.2127,0 c 0.0168,1.73616 0.34902,2.8991 1.24535,4.41751 0.41654,0.70546 1.22395,0.8179 1.3471,1.73952 h 0.10795 c -0.0167,-1.94574 -1.09682,-4.97327 -2.70046,-6.15703 m -10.04574,12.42208 c -1.07803,-2.50169 -2.01908,-4.64565 -1.82658,-7.45325 0.0718,-1.04766 0.46489,-2.00417 0.63838,-3.02452 1.05417,0.15504 2.06186,0.53437 3.02452,0.98124 0.32836,0.15238 0.89311,0.62176 1.26649,0.54388 0.50978,-0.10622 0.53504,-0.91092 0.21935,-1.19674 -1.0401,-0.94213 -2.64643,-1.44247 -3.97035,-1.80876 -0.40461,-0.112 -1.1871,-0.40315 -1.54471,-0.0743 -0.48384,0.4449 -0.6031,1.58709 -0.72353,2.20279 -0.48113,2.45936 -0.20341,5.03667 0.7573,7.34524 0.39926,0.95954 0.92495,2.49846 2.15908,2.48442 m 12.74616,-8.85749 c 1.21098,-0.35549 2.74894,-1.75141 4.09299,-1.49962 0.7219,0.13517 0.81049,1.90026 0.88989,2.47178 0.24735,1.77982 0.002,3.59572 -0.57253,5.29289 -0.28017,0.82559 -1.11916,1.84194 -1.06179,2.70046 1.06579,-0.44687 1.5104,-1.35844 1.95922,-2.37639 0.94226,-2.13716 1.07015,-4.30346 0.95728,-6.58912 -0.0342,-0.69369 -0.25343,-2.98574 -0.99681,-3.27915 -0.44246,-0.17466 -1.16053,0.11968 -1.59564,0.23077 -1.38276,0.35289 -4.6343,1.23994 -3.67261,3.04838 m -13.53168,-0.8596 c -0.41728,0.30838 -0.41867,1.36287 -0.48025,1.83176 -0.25999,1.97728 0.0352,3.97583 0.7743,5.83299 0.16555,0.41599 0.88023,2.36483 1.4927,2.01163 2.16824,-1.2501 1.44915,-3.98188 1.60092,-6.0083 0.0446,-0.59508 0.54223,-1.5613 0.34709,-2.12516 -0.26524,-0.76585 -2.03551,-1.26046 -2.7332,-1.46958 -0.27608,-0.0826 -0.73667,-0.26909 -1.00156,-0.0734 m 16.1241,9.82511 c 1.8104,-3.29757 2.27155,-6.25899 1.51229,-9.93767 -0.98634,0.043 -3.24511,0.6237 -3.77613,1.5478 -0.3098,0.53911 0.24104,1.7405 0.30105,2.34086 0.11796,1.17967 -0.31951,2.66081 -0.0275,3.78064 0.13126,0.50013 0.5885,0.89341 0.89191,1.2946 0.31888,0.42158 0.57274,0.82408 1.09703,0.97377 m -9.28956,-9.82964 -0.86416,1.72829 c 1.39106,0.20653 1.70962,-0.65621 1.18822,-1.72829 h -0.32406 m 3.56462,0 c -0.6101,1.11842 -0.16928,1.67449 1.08018,1.72829 l -0.86414,-1.72829 h -0.21604 m 1.29621,5.18488 c 0.38455,1.00456 0.43458,2.1771 0.93694,3.13252 0.74705,1.42098 3.14862,3.12744 4.78802,3.0245 l -0.10732,0.32407 c -0.88736,-0.21367 -1.95739,-0.80529 -2.80847,-0.89872 -0.77285,-0.085 -1.66102,0.26042 -2.37433,-0.18243 -1.51617,-0.94159 -1.16264,-4.11064 -0.43415,-5.39994 m -5.72497,0.10794 c 0.24819,1.39183 1.16195,4.60158 -0.75776,5.39995 -0.76053,0.31629 -1.62384,-0.1239 -2.37476,0.0892 -0.66603,0.18905 -2.19471,1.37216 -2.80848,0.55996 1.6743,0.0463 4.00392,-1.47076 4.83543,-2.92653 0.51622,-0.904 0.63042,-2.12343 0.88954,-3.12248 h 0.21603 m -0.10796,1.08018 c -0.44266,1.17341 -0.59666,2.12634 -0.43203,3.34857 h 0.32403 c 0.14987,-1.02002 0.75721,-2.39964 0.10795,-3.34857 m 5.72499,0 c -0.4391,1.17263 0.0187,2.18607 0.21603,3.34857 0.889,-0.5603 0.31517,-2.67421 -0.21603,-3.34857 m -6.91319,2.80847 c -0.15441,0.42731 -0.076,1.07987 0.43207,1.1882 l -0.43207,-1.1882 m 8.10137,0 -0.43205,1.1882 c 0.51394,-0.16602 0.75968,-0.73593 0.43205,-1.1882 m -14.47446,4.53677 c -0.62185,-1.24838 -1.65892,-2.58336 -2.54001,-3.67208 -0.20755,-0.25643 -0.776,-0.91211 -1.17344,-0.63548 -0.42859,0.29847 0.35476,1.0601 0.53243,1.28305 0.88543,1.11129 1.7501,2.56759 3.18102,3.02451 m 20.95553,0 c 1.3951,-0.66 2.20176,-1.85424 3.13299,-3.02451 0.17897,-0.22468 0.98361,-0.97216 0.58039,-1.27213 -0.40424,-0.30072 -0.98136,0.36932 -1.20905,0.62445 -0.87497,0.98038 -2.03399,2.44943 -2.50433,3.67219 m -15.87865,-3.34857 0.86413,0.1081 -0.10796,-0.6481 -0.75612,0.54009 m 10.0457,-0.54009 -0.21602,0.54009 h 0.97215 l -0.75608,-0.54009 m -13.28628,4.53676 c -0.57376,-1.20754 -1.52951,-2.55442 -2.40879,-3.56406 -0.18996,-0.21809 -0.93143,-1.02089 -1.25484,-0.5792 -0.26302,0.35895 0.38628,1.06518 0.57694,1.3348 0.77791,1.10005 1.60501,2.67808 3.08669,2.80846 m 17.28294,0 c 1.46644,-0.12891 2.26546,-1.71068 3.02178,-2.80846 0.1801,-0.2613 0.84255,-0.9982 0.56258,-1.33436 -0.34296,-0.41167 -1.028,0.34684 -1.22007,0.58255 -0.80117,0.98371 -1.96011,2.36159 -2.36429,3.56027 m -17.06687,-3.99667 0.21602,0.43208 -0.54011,-0.10795 0.32409,-0.32406 m 16.95886,0 0.10795,0.43207 h -0.43212 l 0.32411,-0.43207 m -12.53014,1.29622 v 0.10795 h -0.32405 l 0.32405,-0.10795 m 8.10134,0.036 c 0.0835,0 0.0168,0.0538 -0.036,0.0361 l 0.036,-0.0361 m -7.88533,0.072 c 0.99398,0.56665 2.63546,2.11435 3.78065,2.11435 1.19748,0 2.71301,-1.59047 3.78064,-2.11435 -0.25119,0.41403 -0.68949,0.63362 -1.08016,0.90994 -0.95706,0.67684 -2.54556,2.10441 -3.78064,2.00655 l 0.6481,-0.32407 v -0.32405 l -2.59244,-1.58431 -0.75615,-0.68406 m -11.77397,5.07685 c -0.33334,2.62397 -0.74143,5.57308 -2.11999,7.88532 -0.70082,1.17558 -2.06033,2.40611 -3.2234,0.96752 -1.30102,-1.60926 0.92846,-4.5548 2.42688,-2.6958 h 0.21603 c 0.51946,-1.25593 -0.74821,-1.81513 -1.83632,-1.57815 -0.94653,0.20622 -1.58703,1.10545 -1.78035,2.01023 -0.50142,2.34658 1.64813,4.82894 3.9391,3.15532 1.7995,-1.3146 2.59784,-4.21294 3.02613,-6.28785 h 0.10795 c 0.10529,0.89157 -0.32728,1.96246 0.002,2.80371 0.32082,0.81554 1.17936,0.48911 1.5088,-0.10326 0.5619,0.60804 1.2787,0.91136 1.72829,0 h 0.21602 c 0.46846,0.87377 0.99244,0.51893 1.72826,0.21604 0.56776,0.97097 1.4074,-0.14534 1.94434,-0.54009 0.30301,0.62305 0.71389,0.90994 1.40428,0.97216 -0.54584,1.50426 -1.87619,4.33079 -0.30377,5.69062 0.49794,0.43068 1.15492,0.21473 1.58009,-0.2021 0.8675,-0.85065 1.65893,-2.30048 2.07224,-3.43617 h 0.10794 c -0.0753,0.8649 -0.97941,2.97255 -0.2438,3.70038 0.33193,0.32837 0.76694,0.0651 0.97694,-0.25018 0.52808,-0.79262 0.88669,-1.90737 1.2113,-2.80209 h 0.10795 c -0.022,1.00295 -0.498,2.62128 0.34868,3.41403 0.88964,0.83303 1.95902,0.0236 2.89186,0.0418 1.13818,0.022 3.17996,0.9188 3.88862,-0.43121 h 0.10795 c 0.51945,0.94937 1.17687,0.68699 1.94432,0.21603 0.39203,0.63558 0.92844,0.57076 1.51226,0.21602 l -0.216,0.64813 c -0.74535,-0.1776 -1.74742,-0.30938 -2.36207,0.25318 -1.19003,1.08925 0.13377,2.37489 1.38989,2.21686 0.71562,-0.0899 0.94742,-0.70569 1.5306,-0.96806 0.57922,-0.26065 1.10201,0.53339 1.38591,-0.42181 -1.24914,-0.6964 -0.75217,-1.2918 -0.64813,-2.48443 0.7636,0.82668 1.85133,1.6528 2.80847,0.5401 h 0.10795 c 0.44828,0.53534 1.47194,0.85475 1.90996,0.0962 0.3151,-0.5456 -0.0186,-1.1518 -0.0635,-1.71652 -0.0535,-0.67177 0.13407,-1.3876 0.29069,-2.03236 0.14095,-0.58136 0.9201,-0.57152 1.23897,-1.01526 0.34067,-0.47398 0.44286,-1.83934 0.62068,-2.46131 -1.82284,0.0157 -2.63305,1.02726 -2.48443,2.80847 h 0.10795 l 0.64808,-1.08019 -0.43205,1.62029 -0.54011,-0.10795 c -0.52808,1.00262 -0.93058,2.21199 -1.58657,3.1309 -0.13548,0.18956 -0.93338,0.93512 -1.04572,0.31931 -0.0522,-0.28593 0.40517,-0.50824 0.57575,-0.66432 0.40506,-0.37082 0.7976,-0.91254 0.7826,-1.48925 -0.0444,-1.70248 -2.08368,-0.27316 -2.39865,0.53966 h -0.10794 c -0.002,-0.69012 -0.12313,-1.14617 -0.86415,-1.29622 -0.13031,1.00943 -0.29166,2.51089 -1.29621,3.02452 0.18934,-0.78584 0.27374,-2.36301 -0.46912,-2.91553 -1.31169,-0.97551 -2.40126,1.25809 -2.44738,2.26742 h -0.10795 c -0.26769,-0.84482 0.23692,-1.66272 0.0318,-2.37166 -0.18996,-0.65555 -0.7877,-0.42158 -1.06121,-0.003 -0.60758,0.93089 -0.78234,2.32034 -1.6708,3.02235 0.0168,-0.83477 0.15395,-1.80563 -0.26576,-2.58229 -0.60103,-1.11182 -1.90663,-0.24035 -2.33696,0.53038 -0.44495,0.79674 -0.28777,1.53396 -0.42181,2.37596 -1.28586,-1.05965 -0.1943,-3.88066 0.27945,-5.18486 0.31377,-0.86362 0.84444,-1.81353 -0.38749,-2.16038 -0.91544,1.73813 -1.96169,3.48975 -2.48441,5.40091 h -0.10794 c 0.0626,-1.37161 1.96754,-4.72353 0.32403,-5.50892 -0.91048,1.7783 -1.79051,3.58523 -2.8305,5.29289 -0.25807,0.42387 -0.86913,1.48244 -1.48428,1.32301 -0.71175,-0.18439 -0.66984,-1.32551 -0.56709,-1.86311 0.27574,-1.44431 0.94892,-3.42633 2.50547,-3.88866 l 0.21603,1.40426 c 1.58107,-0.45477 0.39201,-2.30469 -0.97214,-2.05236 0,-0.39265 0.0275,-0.79718 -0.0109,-1.1882 -0.11186,-1.12479 -1.19501,-1.87563 -2.13774,-1.04301 -0.87164,0.76993 -0.69462,2.12103 -1.84761,2.66328 0.21604,-0.67532 0.7074,-1.55827 0.69628,-2.26826 -0.007,-0.33734 -0.44936,-0.96397 -0.80558,-0.58093 -0.73681,0.7921 -0.26826,2.22831 -1.40297,2.84919 0.064,-1.49055 1.09652,-2.97827 1.04424,-4.42831 -0.0186,-0.53145 -0.48675,-0.70644 -0.93618,-0.75656 -0.0584,1.33176 -0.65829,4.556 -1.94435,5.18487 0.18085,-0.95985 1.01203,-2.80102 -0.43209,-3.02451 -0.1978,1.01981 -0.25369,2.49144 -1.2962,3.02451 0.0882,-0.69348 0.60196,-1.81891 0.36533,-2.48235 -0.18309,-0.5131 -0.8712,-0.61992 -0.94831,-1.1908 -0.13329,-0.98772 0.77567,-3.98869 -1.36136,-3.24368 -0.26576,0.0926 -0.51925,0.23601 -0.75612,0.38649 -0.29792,0.18925 -0.59347,0.39783 -0.86417,0.62445 -0.83009,0.69466 -1.66277,1.68486 -1.88831,2.77336 -0.0864,0.41685 0.0492,1.36309 0.67705,1.27721 0.40369,-0.0552 0.58448,-1.17156 0.75717,-1.49324 0.50833,-0.94721 1.46214,-2.23738 2.50644,-2.59244 m 6.80517,0.97217 c -0.0333,0.77666 -0.30431,1.52781 0.54009,1.94432 0.39221,-0.78152 0.45616,-1.66369 -0.54009,-1.94432 m 2.70045,2.59243 0.21604,0.97217 0.43207,-0.32407 c -0.0245,0.29535 -0.067,0.57996 -0.15614,0.86416 -0.6634,2.12343 -2.30311,-0.6265 -0.49209,-1.51226 m 16.85087,3.78065 c 0,0.78378 -0.16724,1.68216 0.75609,1.94431 0.0829,-0.83454 0.40303,-1.76393 -0.75609,-1.94431 m -25.88842,2.34043 0.036,0.0719 -0.036,-0.0719 m 0.1801,0.252 c 0.67835,2.88668 5.07987,4.71533 7.77732,4.39797 0.78972,-0.0931 4.24814,-0.47119 3.67262,-1.69751 h -0.10794 c -2.61099,1.85887 -6.43657,1.51927 -8.9655,-0.30083 -0.94763,-0.68204 -1.52921,-1.6422 -2.3764,-2.39963 m 17.71499,0 c 0.17675,0.9094 -0.22537,2.21189 -1.18818,2.48442 -0.22731,-0.96557 0.0979,-2.26384 1.18818,-2.48442 m 5.50289,0.0995 c 0.71097,-0.094 0.0399,2.18499 -0.63072,2.28546 -0.34392,0.0515 -0.33844,-0.43824 -0.32483,-0.65676 0.0326,-0.52583 0.32018,-1.54466 0.95555,-1.6287 m 5.19089,0.11655 c -0.21436,0.57692 -0.51315,1.02963 -1.08017,1.29623 0.064,-0.62199 0.36144,-1.36514 1.08017,-1.29623 m -8.31739,0.97216 v 0.32407 h -0.10795 l 0.10795,-0.32407 m 9.72164,0 v 0.5401 h -0.10795 l 0.10795,-0.5401 m -9.61362,0.75613 c 0.19678,0.68722 -0.3589,1.07759 -0.64809,0.32407 l 0.64809,-0.32407 m 9.82967,0.10795 c -0.0522,0.68398 -0.63212,0.86718 -0.75615,0.10795 l 0.75615,-0.10795 m -7.02062,2.31526 c 1.29705,-0.36164 1.55492,0.86955 0.32336,1.18582 -0.92644,0.23797 -1.26206,-0.92419 -0.32336,-1.18582 z"
       id="path16925" />
  </g>
</svg>
